G04 #@! TF.FileFunction,Legend,Bot*
%FSLAX46Y46*%
G04 Gerber Fmt 4.6, Leading zero omitted, Abs format (unit mm)*
G04 Created by KiCad (PCBNEW (2015-04-05 BZR 5577)-product) date Út 4. srpen 2015, 11:46:12 CEST*
%MOMM*%
G01*
G04 APERTURE LIST*
%ADD10C,0.100000*%
%ADD11C,0.150000*%
%ADD12C,0.050000*%
G04 APERTURE END LIST*
D10*
D11*
X204214286Y-130607143D02*
X204000000Y-130678571D01*
X203642857Y-130678571D01*
X203500000Y-130607143D01*
X203428571Y-130535714D01*
X203357143Y-130392857D01*
X203357143Y-130250000D01*
X203428571Y-130107143D01*
X203500000Y-130035714D01*
X203642857Y-129964286D01*
X203928571Y-129892857D01*
X204071429Y-129821429D01*
X204142857Y-129750000D01*
X204214286Y-129607143D01*
X204214286Y-129464286D01*
X204142857Y-129321429D01*
X204071429Y-129250000D01*
X203928571Y-129178571D01*
X203571429Y-129178571D01*
X203357143Y-129250000D01*
X202714286Y-130678571D02*
X202714286Y-129178571D01*
X202357143Y-129178571D01*
X202142858Y-129250000D01*
X202000000Y-129392857D01*
X201928572Y-129535714D01*
X201857143Y-129821429D01*
X201857143Y-130035714D01*
X201928572Y-130321429D01*
X202000000Y-130464286D01*
X202142858Y-130607143D01*
X202357143Y-130678571D01*
X202714286Y-130678571D01*
X201285715Y-130250000D02*
X200571429Y-130250000D01*
X201428572Y-130678571D02*
X200928572Y-129178571D01*
X200428572Y-130678571D01*
X204214286Y-128007143D02*
X204000000Y-128078571D01*
X203642857Y-128078571D01*
X203500000Y-128007143D01*
X203428571Y-127935714D01*
X203357143Y-127792857D01*
X203357143Y-127650000D01*
X203428571Y-127507143D01*
X203500000Y-127435714D01*
X203642857Y-127364286D01*
X203928571Y-127292857D01*
X204071429Y-127221429D01*
X204142857Y-127150000D01*
X204214286Y-127007143D01*
X204214286Y-126864286D01*
X204142857Y-126721429D01*
X204071429Y-126650000D01*
X203928571Y-126578571D01*
X203571429Y-126578571D01*
X203357143Y-126650000D01*
X201857143Y-127935714D02*
X201928572Y-128007143D01*
X202142858Y-128078571D01*
X202285715Y-128078571D01*
X202500000Y-128007143D01*
X202642858Y-127864286D01*
X202714286Y-127721429D01*
X202785715Y-127435714D01*
X202785715Y-127221429D01*
X202714286Y-126935714D01*
X202642858Y-126792857D01*
X202500000Y-126650000D01*
X202285715Y-126578571D01*
X202142858Y-126578571D01*
X201928572Y-126650000D01*
X201857143Y-126721429D01*
X200500000Y-128078571D02*
X201214286Y-128078571D01*
X201214286Y-126578571D01*
X203285714Y-125578571D02*
X203785714Y-124864286D01*
X204142857Y-125578571D02*
X204142857Y-124078571D01*
X203571429Y-124078571D01*
X203428571Y-124150000D01*
X203357143Y-124221429D01*
X203285714Y-124364286D01*
X203285714Y-124578571D01*
X203357143Y-124721429D01*
X203428571Y-124792857D01*
X203571429Y-124864286D01*
X204142857Y-124864286D01*
X202714286Y-125507143D02*
X202500000Y-125578571D01*
X202142857Y-125578571D01*
X202000000Y-125507143D01*
X201928571Y-125435714D01*
X201857143Y-125292857D01*
X201857143Y-125150000D01*
X201928571Y-125007143D01*
X202000000Y-124935714D01*
X202142857Y-124864286D01*
X202428571Y-124792857D01*
X202571429Y-124721429D01*
X202642857Y-124650000D01*
X202714286Y-124507143D01*
X202714286Y-124364286D01*
X202642857Y-124221429D01*
X202571429Y-124150000D01*
X202428571Y-124078571D01*
X202071429Y-124078571D01*
X201857143Y-124150000D01*
X201428572Y-124078571D02*
X200571429Y-124078571D01*
X201000000Y-125578571D02*
X201000000Y-124078571D01*
X203285714Y-123078571D02*
X203785714Y-122364286D01*
X204142857Y-123078571D02*
X204142857Y-121578571D01*
X203571429Y-121578571D01*
X203428571Y-121650000D01*
X203357143Y-121721429D01*
X203285714Y-121864286D01*
X203285714Y-122078571D01*
X203357143Y-122221429D01*
X203428571Y-122292857D01*
X203571429Y-122364286D01*
X204142857Y-122364286D01*
X202785714Y-121578571D02*
X201785714Y-123078571D01*
X201785714Y-121578571D02*
X202785714Y-123078571D01*
X201214286Y-123078571D02*
X201214286Y-121578571D01*
X200857143Y-121578571D01*
X200642858Y-121650000D01*
X200500000Y-121792857D01*
X200428572Y-121935714D01*
X200357143Y-122221429D01*
X200357143Y-122435714D01*
X200428572Y-122721429D01*
X200500000Y-122864286D01*
X200642858Y-123007143D01*
X200857143Y-123078571D01*
X201214286Y-123078571D01*
X204357143Y-119078571D02*
X203500000Y-119078571D01*
X203928571Y-120578571D02*
X203928571Y-119078571D01*
X203142857Y-119078571D02*
X202142857Y-120578571D01*
X202142857Y-119078571D02*
X203142857Y-120578571D01*
X201571429Y-120578571D02*
X201571429Y-119078571D01*
X201214286Y-119078571D01*
X201000001Y-119150000D01*
X200857143Y-119292857D01*
X200785715Y-119435714D01*
X200714286Y-119721429D01*
X200714286Y-119935714D01*
X200785715Y-120221429D01*
X200857143Y-120364286D01*
X201000001Y-120507143D01*
X201214286Y-120578571D01*
X201571429Y-120578571D01*
X204142857Y-117878571D02*
X204142857Y-116378571D01*
X203428571Y-117878571D02*
X203428571Y-116378571D01*
X202571428Y-117878571D01*
X202571428Y-116378571D01*
X203857143Y-113878571D02*
X203571429Y-113878571D01*
X203428571Y-113950000D01*
X203285714Y-114092857D01*
X203214286Y-114378571D01*
X203214286Y-114878571D01*
X203285714Y-115164286D01*
X203428571Y-115307143D01*
X203571429Y-115378571D01*
X203857143Y-115378571D01*
X204000000Y-115307143D01*
X204142857Y-115164286D01*
X204214286Y-114878571D01*
X204214286Y-114378571D01*
X204142857Y-114092857D01*
X204000000Y-113950000D01*
X203857143Y-113878571D01*
X202571428Y-113878571D02*
X202571428Y-115092857D01*
X202500000Y-115235714D01*
X202428571Y-115307143D01*
X202285714Y-115378571D01*
X202000000Y-115378571D01*
X201857142Y-115307143D01*
X201785714Y-115235714D01*
X201714285Y-115092857D01*
X201714285Y-113878571D01*
X201214285Y-113878571D02*
X200357142Y-113878571D01*
X200785713Y-115378571D02*
X200785713Y-113878571D01*
X203328572Y-112307143D02*
X204471429Y-112307143D01*
X203900000Y-112878571D02*
X203900000Y-111735714D01*
X203328572Y-109807143D02*
X204471429Y-109807143D01*
X203328572Y-106007143D02*
X204471429Y-106007143D01*
X203900000Y-106578571D02*
X203900000Y-105435714D01*
X203328572Y-103507143D02*
X204471429Y-103507143D01*
D10*
X216000000Y-131500000D02*
X166000000Y-131500000D01*
X166000000Y-95500000D02*
X216000000Y-95500000D01*
D11*
X207324000Y-96676000D02*
X206816000Y-96676000D01*
X207324000Y-97184000D02*
X206816000Y-97184000D01*
X207324000Y-98200000D02*
X209864000Y-98200000D01*
X207324000Y-98200000D02*
X207324000Y-95660000D01*
X207324000Y-95660000D02*
X209864000Y-95660000D01*
X209864000Y-97184000D02*
X215960000Y-97184000D01*
X215960000Y-97184000D02*
X215960000Y-96676000D01*
X215960000Y-96676000D02*
X209864000Y-96676000D01*
X209864000Y-95660000D02*
X209864000Y-98200000D01*
X209864000Y-98200000D02*
X207324000Y-100740000D01*
X209864000Y-100740000D02*
X207324000Y-98200000D01*
X209991000Y-99597000D02*
X215833000Y-99597000D01*
X215833000Y-99597000D02*
X215833000Y-99343000D01*
X215833000Y-99343000D02*
X209991000Y-99343000D01*
X209991000Y-99470000D02*
X215833000Y-99470000D01*
X207324000Y-99216000D02*
X206816000Y-99216000D01*
X207324000Y-99724000D02*
X206816000Y-99724000D01*
X207324000Y-100740000D02*
X209864000Y-100740000D01*
X207324000Y-100740000D02*
X207324000Y-98200000D01*
X207324000Y-98200000D02*
X209864000Y-98200000D01*
X209864000Y-99724000D02*
X215960000Y-99724000D01*
X215960000Y-99724000D02*
X215960000Y-99216000D01*
X215960000Y-99216000D02*
X209864000Y-99216000D01*
X209864000Y-98200000D02*
X209864000Y-100740000D01*
X168290000Y-126240000D02*
X168290000Y-131320000D01*
X168290000Y-131320000D02*
X175910000Y-131320000D01*
X175910000Y-131320000D02*
X175910000Y-126240000D01*
X175910000Y-126240000D02*
X168290000Y-126240000D01*
X207334000Y-109446000D02*
X206826000Y-109446000D01*
X207334000Y-109954000D02*
X206826000Y-109954000D01*
X207334000Y-110970000D02*
X209874000Y-110970000D01*
X207334000Y-110970000D02*
X207334000Y-108430000D01*
X207334000Y-108430000D02*
X209874000Y-108430000D01*
X209874000Y-109954000D02*
X215970000Y-109954000D01*
X215970000Y-109954000D02*
X215970000Y-109446000D01*
X215970000Y-109446000D02*
X209874000Y-109446000D01*
X209874000Y-108430000D02*
X209874000Y-110970000D01*
X207334000Y-111986000D02*
X206826000Y-111986000D01*
X207334000Y-112494000D02*
X206826000Y-112494000D01*
X207334000Y-113510000D02*
X209874000Y-113510000D01*
X207334000Y-113510000D02*
X207334000Y-110970000D01*
X207334000Y-110970000D02*
X209874000Y-110970000D01*
X209874000Y-112494000D02*
X215970000Y-112494000D01*
X215970000Y-112494000D02*
X215970000Y-111986000D01*
X215970000Y-111986000D02*
X209874000Y-111986000D01*
X209874000Y-110970000D02*
X209874000Y-113510000D01*
X207334000Y-114526000D02*
X206826000Y-114526000D01*
X207334000Y-115034000D02*
X206826000Y-115034000D01*
X207334000Y-116050000D02*
X209874000Y-116050000D01*
X207334000Y-116050000D02*
X207334000Y-113510000D01*
X207334000Y-113510000D02*
X209874000Y-113510000D01*
X209874000Y-115034000D02*
X215970000Y-115034000D01*
X215970000Y-115034000D02*
X215970000Y-114526000D01*
X215970000Y-114526000D02*
X209874000Y-114526000D01*
X209874000Y-113510000D02*
X209874000Y-116050000D01*
X207334000Y-117066000D02*
X206826000Y-117066000D01*
X207334000Y-117574000D02*
X206826000Y-117574000D01*
X207334000Y-118590000D02*
X209874000Y-118590000D01*
X207334000Y-118590000D02*
X207334000Y-116050000D01*
X207334000Y-116050000D02*
X209874000Y-116050000D01*
X209874000Y-117574000D02*
X215970000Y-117574000D01*
X215970000Y-117574000D02*
X215970000Y-117066000D01*
X215970000Y-117066000D02*
X209874000Y-117066000D01*
X209874000Y-116050000D02*
X209874000Y-118590000D01*
X207334000Y-119606000D02*
X206826000Y-119606000D01*
X207334000Y-120114000D02*
X206826000Y-120114000D01*
X207334000Y-121130000D02*
X209874000Y-121130000D01*
X207334000Y-121130000D02*
X207334000Y-118590000D01*
X207334000Y-118590000D02*
X209874000Y-118590000D01*
X209874000Y-120114000D02*
X215970000Y-120114000D01*
X215970000Y-120114000D02*
X215970000Y-119606000D01*
X215970000Y-119606000D02*
X209874000Y-119606000D01*
X209874000Y-118590000D02*
X209874000Y-121130000D01*
X207334000Y-122146000D02*
X206826000Y-122146000D01*
X207334000Y-122654000D02*
X206826000Y-122654000D01*
X207334000Y-123670000D02*
X209874000Y-123670000D01*
X207334000Y-123670000D02*
X207334000Y-121130000D01*
X207334000Y-121130000D02*
X209874000Y-121130000D01*
X209874000Y-122654000D02*
X215970000Y-122654000D01*
X215970000Y-122654000D02*
X215970000Y-122146000D01*
X215970000Y-122146000D02*
X209874000Y-122146000D01*
X209874000Y-121130000D02*
X209874000Y-123670000D01*
X207334000Y-124686000D02*
X206826000Y-124686000D01*
X207334000Y-125194000D02*
X206826000Y-125194000D01*
X207334000Y-126210000D02*
X209874000Y-126210000D01*
X207334000Y-126210000D02*
X207334000Y-123670000D01*
X207334000Y-123670000D02*
X209874000Y-123670000D01*
X209874000Y-125194000D02*
X215970000Y-125194000D01*
X215970000Y-125194000D02*
X215970000Y-124686000D01*
X215970000Y-124686000D02*
X209874000Y-124686000D01*
X209874000Y-123670000D02*
X209874000Y-126210000D01*
X207334000Y-127226000D02*
X206826000Y-127226000D01*
X207334000Y-127734000D02*
X206826000Y-127734000D01*
X207334000Y-128750000D02*
X209874000Y-128750000D01*
X207334000Y-128750000D02*
X207334000Y-126210000D01*
X207334000Y-126210000D02*
X209874000Y-126210000D01*
X209874000Y-127734000D02*
X215970000Y-127734000D01*
X215970000Y-127734000D02*
X215970000Y-127226000D01*
X215970000Y-127226000D02*
X209874000Y-127226000D01*
X209874000Y-126210000D02*
X209874000Y-128750000D01*
X209874000Y-128750000D02*
X207334000Y-131290000D01*
X209874000Y-131290000D02*
X207334000Y-128750000D01*
X210001000Y-130147000D02*
X215843000Y-130147000D01*
X215843000Y-130147000D02*
X215843000Y-129893000D01*
X215843000Y-129893000D02*
X210001000Y-129893000D01*
X210001000Y-130020000D02*
X215843000Y-130020000D01*
X207334000Y-129766000D02*
X206826000Y-129766000D01*
X207334000Y-130274000D02*
X206826000Y-130274000D01*
X207334000Y-131290000D02*
X209874000Y-131290000D01*
X207334000Y-131290000D02*
X207334000Y-128750000D01*
X207334000Y-128750000D02*
X209874000Y-128750000D01*
X209874000Y-130274000D02*
X215970000Y-130274000D01*
X215970000Y-130274000D02*
X215970000Y-129766000D01*
X215970000Y-129766000D02*
X209874000Y-129766000D01*
X209874000Y-128750000D02*
X209874000Y-131290000D01*
X207354000Y-103166000D02*
X206846000Y-103166000D01*
X207354000Y-103674000D02*
X206846000Y-103674000D01*
X207354000Y-104690000D02*
X209894000Y-104690000D01*
X207354000Y-104690000D02*
X207354000Y-102150000D01*
X207354000Y-102150000D02*
X209894000Y-102150000D01*
X209894000Y-103674000D02*
X215990000Y-103674000D01*
X215990000Y-103674000D02*
X215990000Y-103166000D01*
X215990000Y-103166000D02*
X209894000Y-103166000D01*
X209894000Y-102150000D02*
X209894000Y-104690000D01*
X209894000Y-104690000D02*
X207354000Y-107230000D01*
X209894000Y-107230000D02*
X207354000Y-104690000D01*
X210021000Y-106087000D02*
X215863000Y-106087000D01*
X215863000Y-106087000D02*
X215863000Y-105833000D01*
X215863000Y-105833000D02*
X210021000Y-105833000D01*
X210021000Y-105960000D02*
X215863000Y-105960000D01*
X207354000Y-105706000D02*
X206846000Y-105706000D01*
X207354000Y-106214000D02*
X206846000Y-106214000D01*
X207354000Y-107230000D02*
X209894000Y-107230000D01*
X207354000Y-107230000D02*
X207354000Y-104690000D01*
X207354000Y-104690000D02*
X209894000Y-104690000D01*
X209894000Y-106214000D02*
X215990000Y-106214000D01*
X215990000Y-106214000D02*
X215990000Y-105706000D01*
X215990000Y-105706000D02*
X209894000Y-105706000D01*
X209894000Y-104690000D02*
X209894000Y-107230000D01*
X202878571Y-96664286D02*
X201378571Y-96664286D01*
X201450000Y-98164286D02*
X201378571Y-98021429D01*
X201378571Y-97807143D01*
X201450000Y-97592858D01*
X201592857Y-97450000D01*
X201735714Y-97378572D01*
X202021429Y-97307143D01*
X202235714Y-97307143D01*
X202521429Y-97378572D01*
X202664286Y-97450000D01*
X202807143Y-97592858D01*
X202878571Y-97807143D01*
X202878571Y-97950000D01*
X202807143Y-98164286D01*
X202735714Y-98235715D01*
X202235714Y-98235715D01*
X202235714Y-97950000D01*
X202878571Y-98878572D02*
X201378571Y-98878572D01*
X202878571Y-99735715D01*
X201378571Y-99735715D01*
X173464285Y-125678571D02*
X173464285Y-124178571D01*
X172821428Y-125607143D02*
X172607142Y-125678571D01*
X172249999Y-125678571D01*
X172107142Y-125607143D01*
X172035713Y-125535714D01*
X171964285Y-125392857D01*
X171964285Y-125250000D01*
X172035713Y-125107143D01*
X172107142Y-125035714D01*
X172249999Y-124964286D01*
X172535713Y-124892857D01*
X172678571Y-124821429D01*
X172749999Y-124750000D01*
X172821428Y-124607143D01*
X172821428Y-124464286D01*
X172749999Y-124321429D01*
X172678571Y-124250000D01*
X172535713Y-124178571D01*
X172178571Y-124178571D01*
X171964285Y-124250000D01*
X171321428Y-125678571D02*
X171321428Y-124178571D01*
X170750000Y-124178571D01*
X170607142Y-124250000D01*
X170535714Y-124321429D01*
X170464285Y-124464286D01*
X170464285Y-124678571D01*
X170535714Y-124821429D01*
X170607142Y-124892857D01*
X170750000Y-124964286D01*
X171321428Y-124964286D01*
D12*
X169786190Y-126001857D02*
X169786190Y-125716143D01*
X169786190Y-125859000D02*
X169286190Y-125859000D01*
X169357619Y-125811381D01*
X169405238Y-125763762D01*
X169429048Y-125716143D01*
D11*
X202878571Y-102700000D02*
X201378571Y-102700000D01*
X201378571Y-103271428D01*
X201450000Y-103414286D01*
X201521429Y-103485714D01*
X201664286Y-103557143D01*
X201878571Y-103557143D01*
X202021429Y-103485714D01*
X202092857Y-103414286D01*
X202164286Y-103271428D01*
X202164286Y-102700000D01*
X201378571Y-104057143D02*
X202878571Y-104414286D01*
X201807143Y-104700000D01*
X202878571Y-104985714D01*
X201378571Y-105342857D01*
X202878571Y-106771429D02*
X202164286Y-106271429D01*
X202878571Y-105914286D02*
X201378571Y-105914286D01*
X201378571Y-106485714D01*
X201450000Y-106628572D01*
X201521429Y-106700000D01*
X201664286Y-106771429D01*
X201878571Y-106771429D01*
X202021429Y-106700000D01*
X202092857Y-106628572D01*
X202164286Y-106485714D01*
X202164286Y-105914286D01*
M02*
