G04 #@! TF.FileFunction,Copper,L1,Top,Signal*
%FSLAX46Y46*%
G04 Gerber Fmt 4.6, Leading zero omitted, Abs format (unit mm)*
G04 Created by KiCad (PCBNEW (2015-04-05 BZR 5577)-product) date Út 4. srpen 2015, 11:46:12 CEST*
%MOMM*%
G01*
G04 APERTURE LIST*
%ADD10C,0.100000*%
%ADD11R,0.650000X1.700000*%
%ADD12R,1.500000X1.250000*%
%ADD13R,0.550000X1.600000*%
%ADD14R,1.600000X0.550000*%
%ADD15R,1.524000X1.524000*%
%ADD16R,1.250000X1.500000*%
%ADD17R,0.800000X0.500000*%
%ADD18R,2.000000X1.600000*%
%ADD19R,1.600000X2.000000*%
%ADD20C,0.500000*%
%ADD21C,0.250000*%
%ADD22C,1.250000*%
%ADD23C,0.254000*%
G04 APERTURE END LIST*
D10*
D11*
X196295000Y-104250000D03*
X197565000Y-104250000D03*
X198835000Y-104250000D03*
X200105000Y-104250000D03*
X200105000Y-96950000D03*
X198835000Y-96950000D03*
X197565000Y-96950000D03*
X196295000Y-96950000D03*
D12*
X180730000Y-124650000D03*
X183230000Y-124650000D03*
X186965700Y-106677200D03*
X189465700Y-106677200D03*
X186965700Y-104377200D03*
X189465700Y-104377200D03*
X180730000Y-122350000D03*
X183230000Y-122350000D03*
X192580000Y-123675000D03*
X190080000Y-123675000D03*
X192590000Y-128270000D03*
X190090000Y-128270000D03*
X192590000Y-125980000D03*
X190090000Y-125980000D03*
X186965700Y-102077200D03*
X189465700Y-102077200D03*
D13*
X177617900Y-111669600D03*
X176817900Y-111669600D03*
X176017900Y-111669600D03*
X175217900Y-111669600D03*
X174417900Y-111669600D03*
X173617900Y-111669600D03*
X172817900Y-111669600D03*
X172017900Y-111669600D03*
D14*
X170567900Y-113119600D03*
X170567900Y-113919600D03*
X170567900Y-114719600D03*
X170567900Y-115519600D03*
X170567900Y-116319600D03*
X170567900Y-117119600D03*
X170567900Y-117919600D03*
X170567900Y-118719600D03*
D13*
X172017900Y-120169600D03*
X172817900Y-120169600D03*
X173617900Y-120169600D03*
X174417900Y-120169600D03*
X175217900Y-120169600D03*
X176017900Y-120169600D03*
X176817900Y-120169600D03*
X177617900Y-120169600D03*
D14*
X179067900Y-118719600D03*
X179067900Y-117919600D03*
X179067900Y-117119600D03*
X179067900Y-116319600D03*
X179067900Y-115519600D03*
X179067900Y-114719600D03*
X179067900Y-113919600D03*
X179067900Y-113119600D03*
D15*
X205800000Y-96930000D03*
X205800000Y-99470000D03*
X169560000Y-127510000D03*
X169560000Y-130050000D03*
X172100000Y-127510000D03*
X172100000Y-130050000D03*
X174640000Y-127510000D03*
X174640000Y-130050000D03*
D12*
X180730000Y-126950000D03*
X183230000Y-126950000D03*
D16*
X210780000Y-122430000D03*
X210780000Y-124930000D03*
X213100000Y-122430000D03*
X213100000Y-124930000D03*
X208490000Y-122440000D03*
X208490000Y-124940000D03*
X208480000Y-117320000D03*
X208480000Y-114820000D03*
D17*
X196900000Y-124705000D03*
X196900000Y-125955000D03*
X196900000Y-127205000D03*
X196900000Y-128455000D03*
X194900000Y-128455000D03*
X194900000Y-127205000D03*
X194900000Y-125955000D03*
X194890000Y-124705000D03*
D16*
X208740000Y-100810000D03*
X208740000Y-98310000D03*
D18*
X208790000Y-119730000D03*
X212790000Y-119730000D03*
X189840000Y-109020000D03*
X193840000Y-109020000D03*
D15*
X205810000Y-109700000D03*
X205810000Y-112240000D03*
X205810000Y-114780000D03*
X205810000Y-117320000D03*
X205810000Y-119860000D03*
X205810000Y-122400000D03*
X205810000Y-124940000D03*
X205810000Y-127480000D03*
X205810000Y-130020000D03*
X205830000Y-103420000D03*
X205830000Y-105960000D03*
D19*
X186140000Y-126390000D03*
X186140000Y-130390000D03*
D20*
X180744300Y-124942800D02*
X180744300Y-127242800D01*
X180605000Y-124650000D02*
X180730000Y-124650000D01*
X179480000Y-124650000D02*
X180730000Y-124650000D01*
X176213298Y-124650000D02*
X179480000Y-124650000D01*
X172817900Y-121254602D02*
X176213298Y-124650000D01*
X172817900Y-120169600D02*
X172817900Y-121254602D01*
X174417900Y-111669600D02*
X174417900Y-112754602D01*
X174417900Y-112754602D02*
X175217900Y-113554602D01*
X175217900Y-113554602D02*
X175217900Y-113744565D01*
X183230000Y-124650000D02*
X183105000Y-124650000D01*
X175217900Y-120169600D02*
X175217900Y-113744565D01*
X176017900Y-112944565D02*
X176017900Y-111669600D01*
X175217900Y-113744565D02*
X176017900Y-112944565D01*
X209580000Y-114820000D02*
X208480000Y-114820000D01*
X209830000Y-115070000D02*
X209580000Y-114820000D01*
X209830000Y-118690000D02*
X209830000Y-115070000D01*
X208790000Y-119730000D02*
X209830000Y-118690000D01*
X195439998Y-127205000D02*
X196049999Y-127815001D01*
X194900000Y-127205000D02*
X195439998Y-127205000D01*
D21*
X196049999Y-127815001D02*
X196074998Y-127840000D01*
D20*
X207352999Y-113567999D02*
X208480000Y-114695000D01*
X204803997Y-113567999D02*
X207352999Y-113567999D01*
X204120000Y-112884002D02*
X204803997Y-113567999D01*
X208480000Y-114695000D02*
X208480000Y-114820000D01*
X204120000Y-110700000D02*
X204120000Y-112884002D01*
X205120000Y-109700000D02*
X204120000Y-110700000D01*
X205810000Y-109700000D02*
X205120000Y-109700000D01*
X188840000Y-127145000D02*
X188735000Y-127145000D01*
X189965000Y-128270000D02*
X188840000Y-127145000D01*
X190090000Y-128270000D02*
X189965000Y-128270000D01*
X188735000Y-127145000D02*
X188670000Y-127210000D01*
D21*
X197620123Y-127840000D02*
X197780000Y-127840000D01*
X196074998Y-127840000D02*
X197620123Y-127840000D01*
D20*
X197990000Y-128020000D02*
X197850000Y-127880000D01*
X197190000Y-129960000D02*
X197990000Y-129160000D01*
X197990000Y-129160000D02*
X197990000Y-128020000D01*
X191905000Y-129960000D02*
X197190000Y-129960000D01*
X190215000Y-128270000D02*
X191905000Y-129960000D01*
X190090000Y-128270000D02*
X190215000Y-128270000D01*
X184140000Y-110520000D02*
X190950002Y-110520000D01*
X183079990Y-109459990D02*
X184140000Y-110520000D01*
X176927510Y-109459990D02*
X183079990Y-109459990D01*
X191520000Y-109950002D02*
X191520000Y-106530000D01*
X190950002Y-110520000D02*
X191520000Y-109950002D01*
X176017900Y-110369600D02*
X176927510Y-109459990D01*
X176017900Y-111669600D02*
X176017900Y-110369600D01*
X205830000Y-107222000D02*
X207300000Y-108692000D01*
X207300000Y-108692000D02*
X207300000Y-110750000D01*
X207300000Y-110750000D02*
X205810000Y-112240000D01*
X173236226Y-128553774D02*
X173130000Y-128660000D01*
X173130000Y-128660000D02*
X173130000Y-128750000D01*
X173130000Y-128750000D02*
X173220000Y-128840000D01*
X173220000Y-128840000D02*
X173515998Y-128840000D01*
X177920094Y-129660020D02*
X184349943Y-129660020D01*
X173515998Y-128840000D02*
X173517999Y-128837999D01*
X175762001Y-128837999D02*
X175764002Y-128840000D01*
X173517999Y-128837999D02*
X175762001Y-128837999D01*
X175764002Y-128840000D02*
X177100074Y-128840000D01*
X177100074Y-128840000D02*
X177920094Y-129660020D01*
X191280047Y-132510010D02*
X208694955Y-132510010D01*
X185289963Y-128720000D02*
X187490037Y-128720000D01*
X184349943Y-129660020D02*
X185289963Y-128720000D01*
X187490037Y-128720000D02*
X191280047Y-132510010D01*
X215120010Y-126084955D02*
X215120010Y-123325010D01*
X208694955Y-132510010D02*
X215120010Y-126084955D01*
X215120010Y-123325010D02*
X214225000Y-122430000D01*
X214225000Y-122430000D02*
X213100000Y-122430000D01*
X173427999Y-128362001D02*
X173427999Y-126387999D01*
X176360000Y-126120000D02*
X178500000Y-128260000D01*
X173236226Y-128553774D02*
X173427999Y-128362001D01*
X178500000Y-128260000D02*
X181690000Y-128260000D01*
X173427999Y-126387999D02*
X173695998Y-126120000D01*
X173695998Y-126120000D02*
X176360000Y-126120000D01*
X181690000Y-128260000D02*
X181930001Y-128019999D01*
X181930001Y-128019999D02*
X181930001Y-126999999D01*
X192455000Y-123675000D02*
X189010000Y-120230000D01*
X189010000Y-120230000D02*
X183164998Y-120230000D01*
X183164998Y-120230000D02*
X181930001Y-121464997D01*
X181930001Y-121464997D02*
X181930001Y-126999999D01*
X192580000Y-123675000D02*
X192455000Y-123675000D01*
X172960000Y-128830000D02*
X173236226Y-128553774D01*
X181980000Y-126950000D02*
X183230000Y-126950000D01*
X169560000Y-130050000D02*
X170750000Y-128860000D01*
X181930001Y-126999999D02*
X181980000Y-126950000D01*
X170790000Y-128830000D02*
X172960000Y-128830000D01*
X170750000Y-128860000D02*
X170760000Y-128860000D01*
X170760000Y-128860000D02*
X170790000Y-128830000D01*
X192590000Y-128270000D02*
X192465000Y-128270000D01*
X191290001Y-127095001D02*
X191290001Y-125162011D01*
X192465000Y-128270000D02*
X191290001Y-127095001D01*
X192455000Y-123675000D02*
X191225001Y-124904999D01*
X195050000Y-128455000D02*
X194900000Y-128455000D01*
X194900000Y-128455000D02*
X192775000Y-128455000D01*
X192775000Y-128455000D02*
X192590000Y-128270000D01*
X192580000Y-123675000D02*
X193860000Y-123675000D01*
X193860000Y-123675000D02*
X194890000Y-124705000D01*
X186965700Y-106677200D02*
X186965700Y-103158002D01*
X186965700Y-103158002D02*
X186965700Y-102077200D01*
X194900000Y-128455000D02*
X194810100Y-128455000D01*
X186965700Y-106677200D02*
X186965700Y-104377200D01*
X210770000Y-122440000D02*
X210780000Y-122430000D01*
X208490000Y-122440000D02*
X210770000Y-122440000D01*
X213090000Y-122440000D02*
X213100000Y-122430000D01*
X208490000Y-122440000D02*
X213090000Y-122440000D01*
X210780000Y-121180000D02*
X210780000Y-122430000D01*
X210780000Y-114170000D02*
X210780000Y-121180000D01*
X208850000Y-112240000D02*
X210780000Y-114170000D01*
X205810000Y-112240000D02*
X208850000Y-112240000D01*
X186965700Y-106677200D02*
X187090700Y-106677200D01*
X205830000Y-107222000D02*
X205830000Y-105960000D01*
X204032000Y-109020000D02*
X205830000Y-107222000D01*
X193840000Y-109020000D02*
X204032000Y-109020000D01*
X189308500Y-109020000D02*
X186965700Y-106677200D01*
X189840000Y-109020000D02*
X189308500Y-109020000D01*
X185715700Y-106677200D02*
X186965700Y-106677200D01*
X177862800Y-106677200D02*
X185715700Y-106677200D01*
X175217900Y-109322100D02*
X177862800Y-106677200D01*
X175217900Y-111669600D02*
X175217900Y-109322100D01*
X174237900Y-109322100D02*
X175217900Y-109322100D01*
X173617900Y-109942100D02*
X174237900Y-109322100D01*
X173617900Y-111669600D02*
X173617900Y-109942100D01*
X170070000Y-129540000D02*
X169560000Y-130050000D01*
X170120000Y-129540000D02*
X170070000Y-129540000D01*
X180730000Y-122350000D02*
X180605000Y-122350000D01*
X174417900Y-121469600D02*
X174417900Y-120169600D01*
X175298300Y-122350000D02*
X174417900Y-121469600D01*
X180730000Y-122350000D02*
X175298300Y-122350000D01*
X194900000Y-125955000D02*
X192615000Y-125955000D01*
X192615000Y-125955000D02*
X192590000Y-125980000D01*
X167990000Y-130814002D02*
X167990000Y-119197500D01*
X168515998Y-131340000D02*
X167990000Y-130814002D01*
X169267900Y-117919600D02*
X170567900Y-117919600D01*
X167990000Y-119197500D02*
X169267900Y-117919600D01*
X170810000Y-131340000D02*
X168515998Y-131340000D01*
X172100000Y-130050000D02*
X170810000Y-131340000D01*
X170567900Y-126502100D02*
X169560000Y-127510000D01*
X170567900Y-118719600D02*
X170567900Y-126502100D01*
X172017900Y-127427900D02*
X172100000Y-127510000D01*
X172017900Y-120169600D02*
X172017900Y-127427900D01*
X196900000Y-125955000D02*
X196689998Y-125955000D01*
X196689998Y-125955000D02*
X195740001Y-125005003D01*
X195740001Y-125005003D02*
X195740001Y-119070001D01*
X195740001Y-119070001D02*
X193789600Y-117119600D01*
X193789600Y-117119600D02*
X180367900Y-117119600D01*
X180367900Y-117119600D02*
X179067900Y-117119600D01*
X196750000Y-125955000D02*
X196900000Y-125955000D01*
X213100000Y-125055000D02*
X213100000Y-124930000D01*
X208135000Y-130020000D02*
X213100000Y-125055000D01*
X205810000Y-130020000D02*
X208135000Y-130020000D01*
X201745000Y-125955000D02*
X205810000Y-130020000D01*
X196900000Y-125955000D02*
X201745000Y-125955000D01*
X196900000Y-119240037D02*
X196900000Y-123955000D01*
X193979563Y-116319600D02*
X196900000Y-119240037D01*
X196900000Y-123955000D02*
X196900000Y-124705000D01*
X179067900Y-116319600D02*
X193979563Y-116319600D01*
X210780000Y-125055000D02*
X210780000Y-124930000D01*
X208355000Y-127480000D02*
X210780000Y-125055000D01*
X205810000Y-127480000D02*
X208355000Y-127480000D01*
X205110188Y-127480000D02*
X205810000Y-127480000D01*
X202335188Y-124705000D02*
X205110188Y-127480000D01*
X196900000Y-124705000D02*
X202335188Y-124705000D01*
X204548000Y-124940000D02*
X205810000Y-124940000D01*
X203589926Y-124940000D02*
X204548000Y-124940000D01*
X179067900Y-115519600D02*
X194169526Y-115519600D01*
X194169526Y-115519600D02*
X203589926Y-124940000D01*
X175902000Y-127510000D02*
X174640000Y-127510000D01*
X208490000Y-124940000D02*
X208490000Y-124815000D01*
X187779990Y-128019990D02*
X185000010Y-128019990D01*
X176760037Y-127510000D02*
X175902000Y-127510000D01*
X208405002Y-131810000D02*
X191570000Y-131810000D01*
X208490000Y-124815000D02*
X209674999Y-123630001D01*
X209674999Y-123630001D02*
X213985003Y-123630001D01*
X213985003Y-123630001D02*
X214420000Y-124064998D01*
X214420000Y-124064998D02*
X214420000Y-125795002D01*
X214420000Y-125795002D02*
X208405002Y-131810000D01*
X191570000Y-131810000D02*
X187779990Y-128019990D01*
X185000010Y-128019990D02*
X184059990Y-128960010D01*
X184059990Y-128960010D02*
X178210047Y-128960010D01*
X178210047Y-128960010D02*
X176760037Y-127510000D01*
X208490000Y-124940000D02*
X205810000Y-124940000D01*
X179067900Y-114719600D02*
X194359489Y-114719600D01*
X194359489Y-114719600D02*
X202039889Y-122400000D01*
X204548000Y-122400000D02*
X205810000Y-122400000D01*
X202039889Y-122400000D02*
X204548000Y-122400000D01*
X204548000Y-119860000D02*
X205810000Y-119860000D01*
X200489852Y-119860000D02*
X204548000Y-119860000D01*
X179067900Y-113919600D02*
X194549452Y-113919600D01*
X194549452Y-113919600D02*
X200489852Y-119860000D01*
D22*
X200125000Y-96930000D02*
X200105000Y-96950000D01*
X205800000Y-96930000D02*
X200125000Y-96930000D01*
X200105000Y-96950000D02*
X198835000Y-96950000D01*
X198835000Y-96950000D02*
X197565000Y-96950000D01*
X196295000Y-96950000D02*
X197565000Y-96950000D01*
X196295000Y-104250000D02*
X198835000Y-104250000D01*
X196295000Y-104250000D02*
X197565000Y-104250000D01*
X205800000Y-99470000D02*
X201515000Y-99470000D01*
X201515000Y-99470000D02*
X198835000Y-102150000D01*
X198835000Y-102150000D02*
X198835000Y-104250000D01*
D20*
X200105000Y-103725000D02*
X200105000Y-104250000D01*
X203020000Y-100810000D02*
X200105000Y-103725000D01*
X208740000Y-100810000D02*
X203020000Y-100810000D01*
X176892899Y-110659597D02*
X176817900Y-110584598D01*
X176892899Y-110509599D02*
X176892899Y-110659597D01*
X177242498Y-110160000D02*
X176892899Y-110509599D01*
X182790038Y-110160000D02*
X177242498Y-110160000D01*
X191239955Y-111220010D02*
X183850047Y-111220010D01*
X192270000Y-110189965D02*
X191239955Y-111220010D01*
X176817900Y-110584598D02*
X176817900Y-111669600D01*
X194049998Y-106200000D02*
X192270000Y-107979998D01*
X183850047Y-111220010D02*
X182790038Y-110160000D01*
X192270000Y-107979998D02*
X192270000Y-110189965D01*
X198870002Y-106200000D02*
X194049998Y-106200000D01*
X200105000Y-104965002D02*
X198870002Y-106200000D01*
X200105000Y-104250000D02*
X200105000Y-104965002D01*
X198939815Y-117320000D02*
X204548000Y-117320000D01*
X204548000Y-117320000D02*
X205810000Y-117320000D01*
X179067900Y-113119600D02*
X194739415Y-113119600D01*
X194739415Y-113119600D02*
X198939815Y-117320000D01*
X208480000Y-117320000D02*
X205810000Y-117320000D01*
X204548000Y-114780000D02*
X205810000Y-114780000D01*
X177617900Y-111669600D02*
X178392900Y-111669600D01*
X197389777Y-114780000D02*
X204548000Y-114780000D01*
X179093310Y-112370010D02*
X194979787Y-112370010D01*
X194979787Y-112370010D02*
X197389777Y-114780000D01*
X178392900Y-111669600D02*
X179093310Y-112370010D01*
X205499600Y-114469600D02*
X205810000Y-114780000D01*
D23*
G36*
X177645113Y-118321665D02*
X177620460Y-118444600D01*
X177620460Y-118722160D01*
X177342900Y-118722160D01*
X177215834Y-118746813D01*
X177092900Y-118722160D01*
X176542900Y-118722160D01*
X176415834Y-118746813D01*
X176292900Y-118722160D01*
X175742900Y-118722160D01*
X175638213Y-118742471D01*
X175619210Y-118734600D01*
X175503650Y-118734600D01*
X175408490Y-118829759D01*
X175287973Y-118908927D01*
X175217945Y-119012668D01*
X175153573Y-118914673D01*
X175026337Y-118828787D01*
X174932150Y-118734600D01*
X174816590Y-118734600D01*
X174796476Y-118742931D01*
X174692900Y-118722160D01*
X174142900Y-118722160D01*
X174015834Y-118746813D01*
X173892900Y-118722160D01*
X173342900Y-118722160D01*
X173215834Y-118746813D01*
X173092900Y-118722160D01*
X172542900Y-118722160D01*
X172415834Y-118746813D01*
X172292900Y-118722160D01*
X172015340Y-118722160D01*
X172015340Y-118444600D01*
X171990686Y-118317534D01*
X172015340Y-118194600D01*
X172015340Y-117644600D01*
X171990686Y-117517534D01*
X172015340Y-117394600D01*
X172015340Y-116844600D01*
X171990686Y-116717534D01*
X172015340Y-116594600D01*
X172015340Y-116044600D01*
X171990686Y-115917534D01*
X172015340Y-115794600D01*
X172015340Y-115244600D01*
X171990686Y-115117534D01*
X172015340Y-114994600D01*
X172015340Y-114444600D01*
X171990686Y-114317534D01*
X172015340Y-114194600D01*
X172015340Y-113644600D01*
X171990686Y-113517534D01*
X172015340Y-113394600D01*
X172015340Y-113117040D01*
X172292900Y-113117040D01*
X172419965Y-113092386D01*
X172542900Y-113117040D01*
X173092900Y-113117040D01*
X173219965Y-113092386D01*
X173342900Y-113117040D01*
X173892900Y-113117040D01*
X173997586Y-113096728D01*
X174016590Y-113104600D01*
X174132150Y-113104600D01*
X174227309Y-113009440D01*
X174347827Y-112930273D01*
X174417854Y-112826531D01*
X174482227Y-112924527D01*
X174609462Y-113010412D01*
X174703650Y-113104600D01*
X174819210Y-113104600D01*
X174839323Y-113096268D01*
X174942900Y-113117040D01*
X175492900Y-113117040D01*
X175597586Y-113096728D01*
X175616590Y-113104600D01*
X175732150Y-113104600D01*
X175827309Y-113009440D01*
X175947827Y-112930273D01*
X176017854Y-112826531D01*
X176082227Y-112924527D01*
X176209462Y-113010412D01*
X176303650Y-113104600D01*
X176419210Y-113104600D01*
X176439323Y-113096268D01*
X176542900Y-113117040D01*
X177092900Y-113117040D01*
X177219965Y-113092386D01*
X177342900Y-113117040D01*
X177620460Y-113117040D01*
X177620460Y-113394600D01*
X177645113Y-113521665D01*
X177620460Y-113644600D01*
X177620460Y-114194600D01*
X177645113Y-114321665D01*
X177620460Y-114444600D01*
X177620460Y-114994600D01*
X177645113Y-115121665D01*
X177620460Y-115244600D01*
X177620460Y-115794600D01*
X177645113Y-115921665D01*
X177620460Y-116044600D01*
X177620460Y-116594600D01*
X177645113Y-116721665D01*
X177620460Y-116844600D01*
X177620460Y-117394600D01*
X177645113Y-117521665D01*
X177620460Y-117644600D01*
X177620460Y-118194600D01*
X177645113Y-118321665D01*
X177645113Y-118321665D01*
G37*
X177645113Y-118321665D02*
X177620460Y-118444600D01*
X177620460Y-118722160D01*
X177342900Y-118722160D01*
X177215834Y-118746813D01*
X177092900Y-118722160D01*
X176542900Y-118722160D01*
X176415834Y-118746813D01*
X176292900Y-118722160D01*
X175742900Y-118722160D01*
X175638213Y-118742471D01*
X175619210Y-118734600D01*
X175503650Y-118734600D01*
X175408490Y-118829759D01*
X175287973Y-118908927D01*
X175217945Y-119012668D01*
X175153573Y-118914673D01*
X175026337Y-118828787D01*
X174932150Y-118734600D01*
X174816590Y-118734600D01*
X174796476Y-118742931D01*
X174692900Y-118722160D01*
X174142900Y-118722160D01*
X174015834Y-118746813D01*
X173892900Y-118722160D01*
X173342900Y-118722160D01*
X173215834Y-118746813D01*
X173092900Y-118722160D01*
X172542900Y-118722160D01*
X172415834Y-118746813D01*
X172292900Y-118722160D01*
X172015340Y-118722160D01*
X172015340Y-118444600D01*
X171990686Y-118317534D01*
X172015340Y-118194600D01*
X172015340Y-117644600D01*
X171990686Y-117517534D01*
X172015340Y-117394600D01*
X172015340Y-116844600D01*
X171990686Y-116717534D01*
X172015340Y-116594600D01*
X172015340Y-116044600D01*
X171990686Y-115917534D01*
X172015340Y-115794600D01*
X172015340Y-115244600D01*
X171990686Y-115117534D01*
X172015340Y-114994600D01*
X172015340Y-114444600D01*
X171990686Y-114317534D01*
X172015340Y-114194600D01*
X172015340Y-113644600D01*
X171990686Y-113517534D01*
X172015340Y-113394600D01*
X172015340Y-113117040D01*
X172292900Y-113117040D01*
X172419965Y-113092386D01*
X172542900Y-113117040D01*
X173092900Y-113117040D01*
X173219965Y-113092386D01*
X173342900Y-113117040D01*
X173892900Y-113117040D01*
X173997586Y-113096728D01*
X174016590Y-113104600D01*
X174132150Y-113104600D01*
X174227309Y-113009440D01*
X174347827Y-112930273D01*
X174417854Y-112826531D01*
X174482227Y-112924527D01*
X174609462Y-113010412D01*
X174703650Y-113104600D01*
X174819210Y-113104600D01*
X174839323Y-113096268D01*
X174942900Y-113117040D01*
X175492900Y-113117040D01*
X175597586Y-113096728D01*
X175616590Y-113104600D01*
X175732150Y-113104600D01*
X175827309Y-113009440D01*
X175947827Y-112930273D01*
X176017854Y-112826531D01*
X176082227Y-112924527D01*
X176209462Y-113010412D01*
X176303650Y-113104600D01*
X176419210Y-113104600D01*
X176439323Y-113096268D01*
X176542900Y-113117040D01*
X177092900Y-113117040D01*
X177219965Y-113092386D01*
X177342900Y-113117040D01*
X177620460Y-113117040D01*
X177620460Y-113394600D01*
X177645113Y-113521665D01*
X177620460Y-113644600D01*
X177620460Y-114194600D01*
X177645113Y-114321665D01*
X177620460Y-114444600D01*
X177620460Y-114994600D01*
X177645113Y-115121665D01*
X177620460Y-115244600D01*
X177620460Y-115794600D01*
X177645113Y-115921665D01*
X177620460Y-116044600D01*
X177620460Y-116594600D01*
X177645113Y-116721665D01*
X177620460Y-116844600D01*
X177620460Y-117394600D01*
X177645113Y-117521665D01*
X177620460Y-117644600D01*
X177620460Y-118194600D01*
X177645113Y-118321665D01*
G36*
X190263250Y-124832500D02*
X190217000Y-124878750D01*
X190217000Y-125853000D01*
X190237000Y-125853000D01*
X190237000Y-126107000D01*
X190217000Y-126107000D01*
X190217000Y-127081250D01*
X190260750Y-127125000D01*
X190217000Y-127168750D01*
X190217000Y-128143000D01*
X190237000Y-128143000D01*
X190237000Y-128397000D01*
X190217000Y-128397000D01*
X190217000Y-128417000D01*
X189963000Y-128417000D01*
X189963000Y-128397000D01*
X189943000Y-128397000D01*
X189943000Y-128143000D01*
X189963000Y-128143000D01*
X189963000Y-127168750D01*
X189919250Y-127125000D01*
X189963000Y-127081250D01*
X189963000Y-126107000D01*
X189963000Y-125853000D01*
X189963000Y-124878750D01*
X189906750Y-124822500D01*
X189953000Y-124776250D01*
X189953000Y-123802000D01*
X188853750Y-123802000D01*
X188695000Y-123960750D01*
X188695000Y-124173691D01*
X188695000Y-124426310D01*
X188791673Y-124659699D01*
X188964474Y-124832499D01*
X188801673Y-124995301D01*
X188705000Y-125228690D01*
X188705000Y-125481309D01*
X188705000Y-125694250D01*
X188863750Y-125853000D01*
X189963000Y-125853000D01*
X189963000Y-126107000D01*
X188863750Y-126107000D01*
X188705000Y-126265750D01*
X188705000Y-126478691D01*
X188705000Y-126731310D01*
X188801673Y-126964699D01*
X188961974Y-127125000D01*
X188801673Y-127285301D01*
X188705000Y-127518690D01*
X188705000Y-127693420D01*
X188405780Y-127394200D01*
X188118665Y-127202357D01*
X188062474Y-127191179D01*
X187779990Y-127134989D01*
X187779984Y-127134990D01*
X187575000Y-127134990D01*
X187575000Y-126675750D01*
X187575000Y-126104250D01*
X187575000Y-125263691D01*
X187478327Y-125030302D01*
X187299699Y-124851673D01*
X187066310Y-124755000D01*
X186813691Y-124755000D01*
X186425750Y-124755000D01*
X186267000Y-124913750D01*
X186267000Y-126263000D01*
X187416250Y-126263000D01*
X187575000Y-126104250D01*
X187575000Y-126675750D01*
X187416250Y-126517000D01*
X186267000Y-126517000D01*
X186267000Y-126537000D01*
X186013000Y-126537000D01*
X186013000Y-126517000D01*
X186013000Y-126263000D01*
X186013000Y-124913750D01*
X185854250Y-124755000D01*
X185466309Y-124755000D01*
X185213690Y-124755000D01*
X184980301Y-124851673D01*
X184801673Y-125030302D01*
X184705000Y-125263691D01*
X184705000Y-126104250D01*
X184863750Y-126263000D01*
X186013000Y-126263000D01*
X186013000Y-126517000D01*
X184863750Y-126517000D01*
X184705000Y-126675750D01*
X184705000Y-127193671D01*
X184661335Y-127202357D01*
X184627440Y-127225004D01*
X184627440Y-126325000D01*
X184580463Y-126082877D01*
X184440673Y-125870073D01*
X184346511Y-125806513D01*
X184518327Y-125634699D01*
X184615000Y-125401310D01*
X184615000Y-125148691D01*
X184615000Y-124935750D01*
X184615000Y-124364250D01*
X184615000Y-124151309D01*
X184615000Y-123898690D01*
X184518327Y-123665301D01*
X184353025Y-123500000D01*
X184518327Y-123334699D01*
X184615000Y-123101310D01*
X184615000Y-122848691D01*
X184615000Y-122635750D01*
X184456250Y-122477000D01*
X183357000Y-122477000D01*
X183357000Y-123451250D01*
X183405750Y-123500000D01*
X183357000Y-123548750D01*
X183357000Y-124523000D01*
X184456250Y-124523000D01*
X184615000Y-124364250D01*
X184615000Y-124935750D01*
X184456250Y-124777000D01*
X183357000Y-124777000D01*
X183357000Y-124797000D01*
X183103000Y-124797000D01*
X183103000Y-124777000D01*
X183083000Y-124777000D01*
X183083000Y-124523000D01*
X183103000Y-124523000D01*
X183103000Y-123548750D01*
X183054250Y-123500000D01*
X183103000Y-123451250D01*
X183103000Y-122477000D01*
X183083000Y-122477000D01*
X183083000Y-122223000D01*
X183103000Y-122223000D01*
X183103000Y-122203000D01*
X183357000Y-122203000D01*
X183357000Y-122223000D01*
X184456250Y-122223000D01*
X184615000Y-122064250D01*
X184615000Y-121851309D01*
X184615000Y-121598690D01*
X184518327Y-121365301D01*
X184339698Y-121186673D01*
X184166664Y-121115000D01*
X188643420Y-121115000D01*
X189952998Y-122424577D01*
X189952998Y-122573748D01*
X189794250Y-122415000D01*
X189203691Y-122415000D01*
X188970302Y-122511673D01*
X188791673Y-122690301D01*
X188695000Y-122923690D01*
X188695000Y-123176309D01*
X188695000Y-123389250D01*
X188853750Y-123548000D01*
X189953000Y-123548000D01*
X189953000Y-123528000D01*
X190207000Y-123528000D01*
X190207000Y-123548000D01*
X190227000Y-123548000D01*
X190227000Y-123802000D01*
X190207000Y-123802000D01*
X190207000Y-124776250D01*
X190263250Y-124832500D01*
X190263250Y-124832500D01*
G37*
X190263250Y-124832500D02*
X190217000Y-124878750D01*
X190217000Y-125853000D01*
X190237000Y-125853000D01*
X190237000Y-126107000D01*
X190217000Y-126107000D01*
X190217000Y-127081250D01*
X190260750Y-127125000D01*
X190217000Y-127168750D01*
X190217000Y-128143000D01*
X190237000Y-128143000D01*
X190237000Y-128397000D01*
X190217000Y-128397000D01*
X190217000Y-128417000D01*
X189963000Y-128417000D01*
X189963000Y-128397000D01*
X189943000Y-128397000D01*
X189943000Y-128143000D01*
X189963000Y-128143000D01*
X189963000Y-127168750D01*
X189919250Y-127125000D01*
X189963000Y-127081250D01*
X189963000Y-126107000D01*
X189963000Y-125853000D01*
X189963000Y-124878750D01*
X189906750Y-124822500D01*
X189953000Y-124776250D01*
X189953000Y-123802000D01*
X188853750Y-123802000D01*
X188695000Y-123960750D01*
X188695000Y-124173691D01*
X188695000Y-124426310D01*
X188791673Y-124659699D01*
X188964474Y-124832499D01*
X188801673Y-124995301D01*
X188705000Y-125228690D01*
X188705000Y-125481309D01*
X188705000Y-125694250D01*
X188863750Y-125853000D01*
X189963000Y-125853000D01*
X189963000Y-126107000D01*
X188863750Y-126107000D01*
X188705000Y-126265750D01*
X188705000Y-126478691D01*
X188705000Y-126731310D01*
X188801673Y-126964699D01*
X188961974Y-127125000D01*
X188801673Y-127285301D01*
X188705000Y-127518690D01*
X188705000Y-127693420D01*
X188405780Y-127394200D01*
X188118665Y-127202357D01*
X188062474Y-127191179D01*
X187779990Y-127134989D01*
X187779984Y-127134990D01*
X187575000Y-127134990D01*
X187575000Y-126675750D01*
X187575000Y-126104250D01*
X187575000Y-125263691D01*
X187478327Y-125030302D01*
X187299699Y-124851673D01*
X187066310Y-124755000D01*
X186813691Y-124755000D01*
X186425750Y-124755000D01*
X186267000Y-124913750D01*
X186267000Y-126263000D01*
X187416250Y-126263000D01*
X187575000Y-126104250D01*
X187575000Y-126675750D01*
X187416250Y-126517000D01*
X186267000Y-126517000D01*
X186267000Y-126537000D01*
X186013000Y-126537000D01*
X186013000Y-126517000D01*
X186013000Y-126263000D01*
X186013000Y-124913750D01*
X185854250Y-124755000D01*
X185466309Y-124755000D01*
X185213690Y-124755000D01*
X184980301Y-124851673D01*
X184801673Y-125030302D01*
X184705000Y-125263691D01*
X184705000Y-126104250D01*
X184863750Y-126263000D01*
X186013000Y-126263000D01*
X186013000Y-126517000D01*
X184863750Y-126517000D01*
X184705000Y-126675750D01*
X184705000Y-127193671D01*
X184661335Y-127202357D01*
X184627440Y-127225004D01*
X184627440Y-126325000D01*
X184580463Y-126082877D01*
X184440673Y-125870073D01*
X184346511Y-125806513D01*
X184518327Y-125634699D01*
X184615000Y-125401310D01*
X184615000Y-125148691D01*
X184615000Y-124935750D01*
X184615000Y-124364250D01*
X184615000Y-124151309D01*
X184615000Y-123898690D01*
X184518327Y-123665301D01*
X184353025Y-123500000D01*
X184518327Y-123334699D01*
X184615000Y-123101310D01*
X184615000Y-122848691D01*
X184615000Y-122635750D01*
X184456250Y-122477000D01*
X183357000Y-122477000D01*
X183357000Y-123451250D01*
X183405750Y-123500000D01*
X183357000Y-123548750D01*
X183357000Y-124523000D01*
X184456250Y-124523000D01*
X184615000Y-124364250D01*
X184615000Y-124935750D01*
X184456250Y-124777000D01*
X183357000Y-124777000D01*
X183357000Y-124797000D01*
X183103000Y-124797000D01*
X183103000Y-124777000D01*
X183083000Y-124777000D01*
X183083000Y-124523000D01*
X183103000Y-124523000D01*
X183103000Y-123548750D01*
X183054250Y-123500000D01*
X183103000Y-123451250D01*
X183103000Y-122477000D01*
X183083000Y-122477000D01*
X183083000Y-122223000D01*
X183103000Y-122223000D01*
X183103000Y-122203000D01*
X183357000Y-122203000D01*
X183357000Y-122223000D01*
X184456250Y-122223000D01*
X184615000Y-122064250D01*
X184615000Y-121851309D01*
X184615000Y-121598690D01*
X184518327Y-121365301D01*
X184339698Y-121186673D01*
X184166664Y-121115000D01*
X188643420Y-121115000D01*
X189952998Y-122424577D01*
X189952998Y-122573748D01*
X189794250Y-122415000D01*
X189203691Y-122415000D01*
X188970302Y-122511673D01*
X188791673Y-122690301D01*
X188695000Y-122923690D01*
X188695000Y-123176309D01*
X188695000Y-123389250D01*
X188853750Y-123548000D01*
X189953000Y-123548000D01*
X189953000Y-123528000D01*
X190207000Y-123528000D01*
X190207000Y-123548000D01*
X190227000Y-123548000D01*
X190227000Y-123802000D01*
X190207000Y-123802000D01*
X190207000Y-124776250D01*
X190263250Y-124832500D01*
G36*
X195047000Y-127330000D02*
X195027000Y-127330000D01*
X195027000Y-127352000D01*
X194773000Y-127352000D01*
X194773000Y-127330000D01*
X194023750Y-127330000D01*
X193942154Y-127411595D01*
X193940463Y-127402877D01*
X193800673Y-127190073D01*
X193704439Y-127125113D01*
X193794927Y-127065673D01*
X193865000Y-126961863D01*
X193881366Y-126937616D01*
X194023750Y-127080000D01*
X194773000Y-127080000D01*
X194773000Y-127058000D01*
X195027000Y-127058000D01*
X195027000Y-127080000D01*
X195047000Y-127080000D01*
X195047000Y-127330000D01*
X195047000Y-127330000D01*
G37*
X195047000Y-127330000D02*
X195027000Y-127330000D01*
X195027000Y-127352000D01*
X194773000Y-127352000D01*
X194773000Y-127330000D01*
X194023750Y-127330000D01*
X193942154Y-127411595D01*
X193940463Y-127402877D01*
X193800673Y-127190073D01*
X193704439Y-127125113D01*
X193794927Y-127065673D01*
X193865000Y-126961863D01*
X193881366Y-126937616D01*
X194023750Y-127080000D01*
X194773000Y-127080000D01*
X194773000Y-127058000D01*
X195027000Y-127058000D01*
X195027000Y-127080000D01*
X195047000Y-127080000D01*
X195047000Y-127330000D01*
G36*
X204428305Y-130925000D02*
X191936579Y-130925000D01*
X190541579Y-129530000D01*
X190966309Y-129530000D01*
X191199698Y-129433327D01*
X191341176Y-129291849D01*
X191379327Y-129349927D01*
X191590360Y-129492377D01*
X191840000Y-129542440D01*
X193340000Y-129542440D01*
X193582123Y-129495463D01*
X193794927Y-129355673D01*
X193805506Y-129340000D01*
X194437967Y-129340000D01*
X194500000Y-129352440D01*
X195300000Y-129352440D01*
X195542123Y-129305463D01*
X195754927Y-129165673D01*
X195897377Y-128954640D01*
X195899216Y-128945469D01*
X195899537Y-128947123D01*
X196039327Y-129159927D01*
X196250360Y-129302377D01*
X196500000Y-129352440D01*
X197300000Y-129352440D01*
X197542123Y-129305463D01*
X197754927Y-129165673D01*
X197897377Y-128954640D01*
X197947440Y-128705000D01*
X197947440Y-128205000D01*
X197900463Y-127962877D01*
X197812969Y-127829685D01*
X197897377Y-127704640D01*
X197947440Y-127455000D01*
X197947440Y-126955000D01*
X197925127Y-126840000D01*
X201378420Y-126840000D01*
X204400560Y-129862139D01*
X204400560Y-130782000D01*
X204428305Y-130925000D01*
X204428305Y-130925000D01*
G37*
X204428305Y-130925000D02*
X191936579Y-130925000D01*
X190541579Y-129530000D01*
X190966309Y-129530000D01*
X191199698Y-129433327D01*
X191341176Y-129291849D01*
X191379327Y-129349927D01*
X191590360Y-129492377D01*
X191840000Y-129542440D01*
X193340000Y-129542440D01*
X193582123Y-129495463D01*
X193794927Y-129355673D01*
X193805506Y-129340000D01*
X194437967Y-129340000D01*
X194500000Y-129352440D01*
X195300000Y-129352440D01*
X195542123Y-129305463D01*
X195754927Y-129165673D01*
X195897377Y-128954640D01*
X195899216Y-128945469D01*
X195899537Y-128947123D01*
X196039327Y-129159927D01*
X196250360Y-129302377D01*
X196500000Y-129352440D01*
X197300000Y-129352440D01*
X197542123Y-129305463D01*
X197754927Y-129165673D01*
X197897377Y-128954640D01*
X197947440Y-128705000D01*
X197947440Y-128205000D01*
X197900463Y-127962877D01*
X197812969Y-127829685D01*
X197897377Y-127704640D01*
X197947440Y-127455000D01*
X197947440Y-126955000D01*
X197925127Y-126840000D01*
X201378420Y-126840000D01*
X204400560Y-129862139D01*
X204400560Y-130782000D01*
X204428305Y-130925000D01*
G36*
X204665541Y-113509722D02*
X204593073Y-113557327D01*
X204450623Y-113768360D01*
X204425226Y-113895000D01*
X197756356Y-113895000D01*
X195605577Y-111744220D01*
X195318462Y-111552377D01*
X195262271Y-111541199D01*
X194979787Y-111485009D01*
X194979781Y-111485010D01*
X192226534Y-111485010D01*
X192895786Y-110815757D01*
X192895790Y-110815755D01*
X192895790Y-110815754D01*
X193023975Y-110623911D01*
X193087633Y-110528640D01*
X193087634Y-110528639D01*
X193099807Y-110467440D01*
X194840000Y-110467440D01*
X195082123Y-110420463D01*
X195294927Y-110280673D01*
X195437377Y-110069640D01*
X195470394Y-109905000D01*
X204031994Y-109905000D01*
X204032000Y-109905001D01*
X204032000Y-109905000D01*
X204314484Y-109848810D01*
X204370674Y-109837633D01*
X204370675Y-109837633D01*
X204413000Y-109809352D01*
X204413000Y-109827002D01*
X204571748Y-109827002D01*
X204413000Y-109985750D01*
X204413000Y-110335691D01*
X204413000Y-110588310D01*
X204509673Y-110821699D01*
X204660807Y-110972832D01*
X204593073Y-111017327D01*
X204450623Y-111228360D01*
X204400560Y-111478000D01*
X204400560Y-113002000D01*
X204447537Y-113244123D01*
X204587327Y-113456927D01*
X204665541Y-113509722D01*
X204665541Y-113509722D01*
G37*
X204665541Y-113509722D02*
X204593073Y-113557327D01*
X204450623Y-113768360D01*
X204425226Y-113895000D01*
X197756356Y-113895000D01*
X195605577Y-111744220D01*
X195318462Y-111552377D01*
X195262271Y-111541199D01*
X194979787Y-111485009D01*
X194979781Y-111485010D01*
X192226534Y-111485010D01*
X192895786Y-110815757D01*
X192895790Y-110815755D01*
X192895790Y-110815754D01*
X193023975Y-110623911D01*
X193087633Y-110528640D01*
X193087634Y-110528639D01*
X193099807Y-110467440D01*
X194840000Y-110467440D01*
X195082123Y-110420463D01*
X195294927Y-110280673D01*
X195437377Y-110069640D01*
X195470394Y-109905000D01*
X204031994Y-109905000D01*
X204032000Y-109905001D01*
X204032000Y-109905000D01*
X204314484Y-109848810D01*
X204370674Y-109837633D01*
X204370675Y-109837633D01*
X204413000Y-109809352D01*
X204413000Y-109827002D01*
X204571748Y-109827002D01*
X204413000Y-109985750D01*
X204413000Y-110335691D01*
X204413000Y-110588310D01*
X204509673Y-110821699D01*
X204660807Y-110972832D01*
X204593073Y-111017327D01*
X204450623Y-111228360D01*
X204400560Y-111478000D01*
X204400560Y-113002000D01*
X204447537Y-113244123D01*
X204587327Y-113456927D01*
X204665541Y-113509722D01*
G36*
X205957000Y-109827000D02*
X205937000Y-109827000D01*
X205937000Y-109847000D01*
X205683000Y-109847000D01*
X205683000Y-109827000D01*
X205663000Y-109827000D01*
X205663000Y-109573000D01*
X205683000Y-109573000D01*
X205683000Y-109553000D01*
X205937000Y-109553000D01*
X205937000Y-109573000D01*
X205957000Y-109573000D01*
X205957000Y-109827000D01*
X205957000Y-109827000D01*
G37*
X205957000Y-109827000D02*
X205937000Y-109827000D01*
X205937000Y-109847000D01*
X205683000Y-109847000D01*
X205683000Y-109827000D01*
X205663000Y-109827000D01*
X205663000Y-109573000D01*
X205683000Y-109573000D01*
X205683000Y-109553000D01*
X205937000Y-109553000D01*
X205937000Y-109573000D01*
X205957000Y-109573000D01*
X205957000Y-109827000D01*
G36*
X208937000Y-119857000D02*
X208917000Y-119857000D01*
X208917000Y-119877000D01*
X208663000Y-119877000D01*
X208663000Y-119857000D01*
X208643000Y-119857000D01*
X208643000Y-119603000D01*
X208663000Y-119603000D01*
X208663000Y-119583000D01*
X208917000Y-119583000D01*
X208917000Y-119603000D01*
X208937000Y-119603000D01*
X208937000Y-119857000D01*
X208937000Y-119857000D01*
G37*
X208937000Y-119857000D02*
X208917000Y-119857000D01*
X208917000Y-119877000D01*
X208663000Y-119877000D01*
X208663000Y-119857000D01*
X208643000Y-119857000D01*
X208643000Y-119603000D01*
X208663000Y-119603000D01*
X208663000Y-119583000D01*
X208917000Y-119583000D01*
X208917000Y-119603000D01*
X208937000Y-119603000D01*
X208937000Y-119857000D01*
G36*
X209895000Y-118295000D02*
X209707318Y-118295000D01*
X209752440Y-118070000D01*
X209752440Y-116570000D01*
X209705463Y-116327877D01*
X209565673Y-116115073D01*
X209501362Y-116071662D01*
X209643327Y-115929698D01*
X209740000Y-115696309D01*
X209740000Y-115105750D01*
X209581250Y-114947000D01*
X208607000Y-114947000D01*
X208607000Y-114967000D01*
X208353000Y-114967000D01*
X208353000Y-114947000D01*
X208353000Y-114693000D01*
X208353000Y-113593750D01*
X208194250Y-113435000D01*
X207981309Y-113435000D01*
X207728690Y-113435000D01*
X207495301Y-113531673D01*
X207316673Y-113710302D01*
X207220000Y-113943691D01*
X207220000Y-114534250D01*
X207378750Y-114693000D01*
X208353000Y-114693000D01*
X208353000Y-114947000D01*
X207378750Y-114947000D01*
X207220000Y-115105750D01*
X207220000Y-115696309D01*
X207316673Y-115929698D01*
X207458150Y-116071176D01*
X207400073Y-116109327D01*
X207257623Y-116320360D01*
X207234633Y-116435000D01*
X207195575Y-116435000D01*
X207172463Y-116315877D01*
X207032673Y-116103073D01*
X206954458Y-116050277D01*
X207026927Y-116002673D01*
X207169377Y-115791640D01*
X207219440Y-115542000D01*
X207219440Y-114018000D01*
X207172463Y-113775877D01*
X207032673Y-113563073D01*
X206954458Y-113510277D01*
X207026927Y-113462673D01*
X207169377Y-113251640D01*
X207194773Y-113125000D01*
X208483420Y-113125000D01*
X208793420Y-113435000D01*
X208765750Y-113435000D01*
X208607000Y-113593750D01*
X208607000Y-114693000D01*
X209581250Y-114693000D01*
X209740000Y-114534250D01*
X209740000Y-114381579D01*
X209895000Y-114536579D01*
X209895000Y-118295000D01*
X209895000Y-118295000D01*
G37*
X209895000Y-118295000D02*
X209707318Y-118295000D01*
X209752440Y-118070000D01*
X209752440Y-116570000D01*
X209705463Y-116327877D01*
X209565673Y-116115073D01*
X209501362Y-116071662D01*
X209643327Y-115929698D01*
X209740000Y-115696309D01*
X209740000Y-115105750D01*
X209581250Y-114947000D01*
X208607000Y-114947000D01*
X208607000Y-114967000D01*
X208353000Y-114967000D01*
X208353000Y-114947000D01*
X208353000Y-114693000D01*
X208353000Y-113593750D01*
X208194250Y-113435000D01*
X207981309Y-113435000D01*
X207728690Y-113435000D01*
X207495301Y-113531673D01*
X207316673Y-113710302D01*
X207220000Y-113943691D01*
X207220000Y-114534250D01*
X207378750Y-114693000D01*
X208353000Y-114693000D01*
X208353000Y-114947000D01*
X207378750Y-114947000D01*
X207220000Y-115105750D01*
X207220000Y-115696309D01*
X207316673Y-115929698D01*
X207458150Y-116071176D01*
X207400073Y-116109327D01*
X207257623Y-116320360D01*
X207234633Y-116435000D01*
X207195575Y-116435000D01*
X207172463Y-116315877D01*
X207032673Y-116103073D01*
X206954458Y-116050277D01*
X207026927Y-116002673D01*
X207169377Y-115791640D01*
X207219440Y-115542000D01*
X207219440Y-114018000D01*
X207172463Y-113775877D01*
X207032673Y-113563073D01*
X206954458Y-113510277D01*
X207026927Y-113462673D01*
X207169377Y-113251640D01*
X207194773Y-113125000D01*
X208483420Y-113125000D01*
X208793420Y-113435000D01*
X208765750Y-113435000D01*
X208607000Y-113593750D01*
X208607000Y-114693000D01*
X209581250Y-114693000D01*
X209740000Y-114534250D01*
X209740000Y-114381579D01*
X209895000Y-114536579D01*
X209895000Y-118295000D01*
G36*
X215315000Y-135315000D02*
X187575000Y-135315000D01*
X187575000Y-131516309D01*
X187575000Y-130675750D01*
X187416250Y-130517000D01*
X186267000Y-130517000D01*
X186267000Y-131866250D01*
X186425750Y-132025000D01*
X186813691Y-132025000D01*
X187066310Y-132025000D01*
X187299699Y-131928327D01*
X187478327Y-131749698D01*
X187575000Y-131516309D01*
X187575000Y-135315000D01*
X186013000Y-135315000D01*
X176037000Y-135315000D01*
X176037000Y-130938309D01*
X176037000Y-130335750D01*
X175878250Y-130177000D01*
X174767000Y-130177000D01*
X174767000Y-131288250D01*
X174925750Y-131447000D01*
X175275691Y-131447000D01*
X175528310Y-131447000D01*
X175761699Y-131350327D01*
X175940327Y-131171698D01*
X176037000Y-130938309D01*
X176037000Y-135315000D01*
X166685000Y-135315000D01*
X166685000Y-91685000D01*
X215315000Y-91685000D01*
X215315000Y-122268420D01*
X214850790Y-121804210D01*
X214563675Y-121612367D01*
X214507484Y-121601189D01*
X214351114Y-121570085D01*
X214325463Y-121437877D01*
X214185673Y-121225073D01*
X214028086Y-121118700D01*
X214149698Y-121068327D01*
X214328327Y-120889699D01*
X214425000Y-120656310D01*
X214425000Y-120403691D01*
X214425000Y-120015750D01*
X214425000Y-119444250D01*
X214425000Y-119056309D01*
X214425000Y-118803690D01*
X214328327Y-118570301D01*
X214149698Y-118391673D01*
X213916309Y-118295000D01*
X213075750Y-118295000D01*
X212917000Y-118453750D01*
X212917000Y-119603000D01*
X214266250Y-119603000D01*
X214425000Y-119444250D01*
X214425000Y-120015750D01*
X214266250Y-119857000D01*
X212917000Y-119857000D01*
X212917000Y-119877000D01*
X212663000Y-119877000D01*
X212663000Y-119857000D01*
X212643000Y-119857000D01*
X212643000Y-119603000D01*
X212663000Y-119603000D01*
X212663000Y-118453750D01*
X212504250Y-118295000D01*
X211665000Y-118295000D01*
X211665000Y-114170005D01*
X211665000Y-114170000D01*
X211665001Y-114170000D01*
X211597633Y-113831325D01*
X211405790Y-113544210D01*
X211405786Y-113544207D01*
X209475790Y-111614210D01*
X209188675Y-111422367D01*
X209132484Y-111411189D01*
X208850000Y-111354999D01*
X208849994Y-111355000D01*
X207939681Y-111355000D01*
X208117633Y-111088675D01*
X208185000Y-110750000D01*
X208185001Y-110750000D01*
X208185000Y-110749994D01*
X208185000Y-108692005D01*
X208185000Y-108692000D01*
X208185001Y-108692000D01*
X208128810Y-108409515D01*
X208117633Y-108353326D01*
X208117633Y-108353325D01*
X207925790Y-108066211D01*
X207925790Y-108066210D01*
X207925786Y-108066207D01*
X207044105Y-107184526D01*
X207046927Y-107182673D01*
X207189377Y-106971640D01*
X207239440Y-106722000D01*
X207239440Y-105198000D01*
X207192463Y-104955877D01*
X207052673Y-104743073D01*
X206978810Y-104693214D01*
X207130327Y-104541699D01*
X207227000Y-104308310D01*
X207227000Y-104055691D01*
X207227000Y-103705750D01*
X207227000Y-103134250D01*
X207227000Y-102784309D01*
X207227000Y-102531690D01*
X207130327Y-102298301D01*
X206951698Y-102119673D01*
X206718309Y-102023000D01*
X206115750Y-102023000D01*
X205957000Y-102181750D01*
X205957000Y-103293000D01*
X207068250Y-103293000D01*
X207227000Y-103134250D01*
X207227000Y-103705750D01*
X207068250Y-103547000D01*
X205957000Y-103547000D01*
X205957000Y-103567000D01*
X205703000Y-103567000D01*
X205703000Y-103547000D01*
X205703000Y-103293000D01*
X205703000Y-102181750D01*
X205544250Y-102023000D01*
X204941691Y-102023000D01*
X204708302Y-102119673D01*
X204529673Y-102298301D01*
X204433000Y-102531690D01*
X204433000Y-102784309D01*
X204433000Y-103134250D01*
X204591750Y-103293000D01*
X205703000Y-103293000D01*
X205703000Y-103547000D01*
X204591750Y-103547000D01*
X204433000Y-103705750D01*
X204433000Y-104055691D01*
X204433000Y-104308310D01*
X204529673Y-104541699D01*
X204680807Y-104692832D01*
X204613073Y-104737327D01*
X204470623Y-104948360D01*
X204420560Y-105198000D01*
X204420560Y-106722000D01*
X204467537Y-106964123D01*
X204607327Y-107176927D01*
X204616978Y-107183442D01*
X203665420Y-108135000D01*
X195470948Y-108135000D01*
X195440463Y-107977877D01*
X195300673Y-107765073D01*
X195089640Y-107622623D01*
X194840000Y-107572560D01*
X193929017Y-107572560D01*
X194416577Y-107085000D01*
X198869996Y-107085000D01*
X198870002Y-107085001D01*
X198870002Y-107085000D01*
X199152486Y-107028810D01*
X199208676Y-107017633D01*
X199208677Y-107017633D01*
X199495792Y-106825790D01*
X200608839Y-105712741D01*
X200672123Y-105700463D01*
X200884927Y-105560673D01*
X201027377Y-105349640D01*
X201077440Y-105100000D01*
X201077440Y-104004139D01*
X203386579Y-101695000D01*
X207493752Y-101695000D01*
X207514537Y-101802123D01*
X207654327Y-102014927D01*
X207865360Y-102157377D01*
X208115000Y-102207440D01*
X209365000Y-102207440D01*
X209607123Y-102160463D01*
X209819927Y-102020673D01*
X209962377Y-101809640D01*
X210012440Y-101560000D01*
X210012440Y-100060000D01*
X209965463Y-99817877D01*
X209825673Y-99605073D01*
X209761362Y-99561662D01*
X209903327Y-99419698D01*
X210000000Y-99186309D01*
X210000000Y-98595750D01*
X210000000Y-98024250D01*
X210000000Y-97433691D01*
X209903327Y-97200302D01*
X209724699Y-97021673D01*
X209491310Y-96925000D01*
X209238691Y-96925000D01*
X209025750Y-96925000D01*
X208867000Y-97083750D01*
X208867000Y-98183000D01*
X209841250Y-98183000D01*
X210000000Y-98024250D01*
X210000000Y-98595750D01*
X209841250Y-98437000D01*
X208867000Y-98437000D01*
X208867000Y-98457000D01*
X208613000Y-98457000D01*
X208613000Y-98437000D01*
X208613000Y-98183000D01*
X208613000Y-97083750D01*
X208454250Y-96925000D01*
X208241309Y-96925000D01*
X207988690Y-96925000D01*
X207755301Y-97021673D01*
X207576673Y-97200302D01*
X207480000Y-97433691D01*
X207480000Y-98024250D01*
X207638750Y-98183000D01*
X208613000Y-98183000D01*
X208613000Y-98437000D01*
X207638750Y-98437000D01*
X207480000Y-98595750D01*
X207480000Y-99186309D01*
X207576673Y-99419698D01*
X207718150Y-99561176D01*
X207660073Y-99599327D01*
X207517623Y-99810360D01*
X207494633Y-99925000D01*
X207209440Y-99925000D01*
X207209440Y-98708000D01*
X207162463Y-98465877D01*
X207022673Y-98253073D01*
X206944458Y-98200277D01*
X207016927Y-98152673D01*
X207159377Y-97941640D01*
X207209440Y-97692000D01*
X207209440Y-96168000D01*
X207162463Y-95925877D01*
X207022673Y-95713073D01*
X206811640Y-95570623D01*
X206562000Y-95520560D01*
X205038000Y-95520560D01*
X204795877Y-95567537D01*
X204639896Y-95670000D01*
X200907047Y-95670000D01*
X200890673Y-95645073D01*
X200679640Y-95502623D01*
X200430000Y-95452560D01*
X199780000Y-95452560D01*
X199537877Y-95499537D01*
X199470569Y-95543751D01*
X199409640Y-95502623D01*
X199160000Y-95452560D01*
X198510000Y-95452560D01*
X198267877Y-95499537D01*
X198200569Y-95543751D01*
X198139640Y-95502623D01*
X197890000Y-95452560D01*
X197240000Y-95452560D01*
X196997877Y-95499537D01*
X196930569Y-95543751D01*
X196869640Y-95502623D01*
X196620000Y-95452560D01*
X195970000Y-95452560D01*
X195727877Y-95499537D01*
X195515073Y-95639327D01*
X195372623Y-95850360D01*
X195322560Y-96100000D01*
X195322560Y-96180996D01*
X195130912Y-96467819D01*
X195035000Y-96950000D01*
X195130912Y-97432181D01*
X195322560Y-97719003D01*
X195322560Y-97800000D01*
X195369537Y-98042123D01*
X195509327Y-98254927D01*
X195720360Y-98397377D01*
X195970000Y-98447440D01*
X196620000Y-98447440D01*
X196862123Y-98400463D01*
X196929430Y-98356248D01*
X196990360Y-98397377D01*
X197240000Y-98447440D01*
X197890000Y-98447440D01*
X198132123Y-98400463D01*
X198199430Y-98356248D01*
X198260360Y-98397377D01*
X198510000Y-98447440D01*
X199160000Y-98447440D01*
X199402123Y-98400463D01*
X199469430Y-98356248D01*
X199530360Y-98397377D01*
X199780000Y-98447440D01*
X200430000Y-98447440D01*
X200672123Y-98400463D01*
X200884927Y-98260673D01*
X200932632Y-98190000D01*
X204641137Y-98190000D01*
X204655541Y-98199722D01*
X204639896Y-98210000D01*
X201515000Y-98210000D01*
X201032819Y-98305912D01*
X200624045Y-98579045D01*
X200624042Y-98579048D01*
X197944045Y-101259045D01*
X197670912Y-101667819D01*
X197574999Y-102150000D01*
X197575000Y-102150005D01*
X197575000Y-102752560D01*
X197240000Y-102752560D01*
X196997877Y-102799537D01*
X196930569Y-102843751D01*
X196869640Y-102802623D01*
X196620000Y-102752560D01*
X195970000Y-102752560D01*
X195727877Y-102799537D01*
X195515073Y-102939327D01*
X195372623Y-103150360D01*
X195322560Y-103400000D01*
X195322560Y-103480996D01*
X195130912Y-103767819D01*
X195035000Y-104250000D01*
X195130912Y-104732181D01*
X195322560Y-105019003D01*
X195322560Y-105100000D01*
X195364274Y-105315000D01*
X194049998Y-105315000D01*
X193711323Y-105382367D01*
X193424208Y-105574210D01*
X193424205Y-105574213D01*
X191644210Y-107354208D01*
X191452367Y-107641323D01*
X191441189Y-107697513D01*
X191398214Y-107913561D01*
X191300673Y-107765073D01*
X191089640Y-107622623D01*
X190840000Y-107572560D01*
X190791032Y-107572560D01*
X190850700Y-107428510D01*
X190850700Y-107175891D01*
X190850700Y-106962950D01*
X190850700Y-106391450D01*
X190850700Y-106178509D01*
X190850700Y-105925890D01*
X190754027Y-105692501D01*
X190588725Y-105527200D01*
X190754027Y-105361899D01*
X190850700Y-105128510D01*
X190850700Y-104875891D01*
X190850700Y-104662950D01*
X190850700Y-104091450D01*
X190850700Y-103878509D01*
X190850700Y-103625890D01*
X190754027Y-103392501D01*
X190588725Y-103227200D01*
X190754027Y-103061899D01*
X190850700Y-102828510D01*
X190850700Y-102575891D01*
X190850700Y-102362950D01*
X190850700Y-101791450D01*
X190850700Y-101578509D01*
X190850700Y-101325890D01*
X190754027Y-101092501D01*
X190575398Y-100913873D01*
X190342009Y-100817200D01*
X189751450Y-100817200D01*
X189592700Y-100975950D01*
X189592700Y-101950200D01*
X190691950Y-101950200D01*
X190850700Y-101791450D01*
X190850700Y-102362950D01*
X190691950Y-102204200D01*
X189592700Y-102204200D01*
X189592700Y-103178450D01*
X189641450Y-103227200D01*
X189592700Y-103275950D01*
X189592700Y-104250200D01*
X190691950Y-104250200D01*
X190850700Y-104091450D01*
X190850700Y-104662950D01*
X190691950Y-104504200D01*
X189592700Y-104504200D01*
X189592700Y-105478450D01*
X189641450Y-105527200D01*
X189592700Y-105575950D01*
X189592700Y-106550200D01*
X190691950Y-106550200D01*
X190850700Y-106391450D01*
X190850700Y-106962950D01*
X190691950Y-106804200D01*
X189592700Y-106804200D01*
X189592700Y-106824200D01*
X189338700Y-106824200D01*
X189338700Y-106804200D01*
X189318700Y-106804200D01*
X189318700Y-106550200D01*
X189338700Y-106550200D01*
X189338700Y-105575950D01*
X189289950Y-105527200D01*
X189338700Y-105478450D01*
X189338700Y-104504200D01*
X189318700Y-104504200D01*
X189318700Y-104250200D01*
X189338700Y-104250200D01*
X189338700Y-103275950D01*
X189289950Y-103227200D01*
X189338700Y-103178450D01*
X189338700Y-102204200D01*
X189318700Y-102204200D01*
X189318700Y-101950200D01*
X189338700Y-101950200D01*
X189338700Y-100975950D01*
X189179950Y-100817200D01*
X188589391Y-100817200D01*
X188356002Y-100913873D01*
X188214523Y-101055350D01*
X188176373Y-100997273D01*
X187965340Y-100854823D01*
X187715700Y-100804760D01*
X186215700Y-100804760D01*
X185973577Y-100851737D01*
X185760773Y-100991527D01*
X185618323Y-101202560D01*
X185568260Y-101452200D01*
X185568260Y-102702200D01*
X185615237Y-102944323D01*
X185755027Y-103157127D01*
X185858768Y-103227154D01*
X185760773Y-103291527D01*
X185618323Y-103502560D01*
X185568260Y-103752200D01*
X185568260Y-105002200D01*
X185615237Y-105244323D01*
X185755027Y-105457127D01*
X185858768Y-105527154D01*
X185760773Y-105591527D01*
X185625316Y-105792200D01*
X177862800Y-105792200D01*
X177524125Y-105859567D01*
X177237010Y-106051410D01*
X177237007Y-106051413D01*
X174851320Y-108437100D01*
X174237900Y-108437100D01*
X173899225Y-108504467D01*
X173612110Y-108696310D01*
X173612107Y-108696313D01*
X172992110Y-109316310D01*
X172800267Y-109603425D01*
X172789089Y-109659615D01*
X172732899Y-109942100D01*
X172732900Y-109942105D01*
X172732900Y-110222160D01*
X172542900Y-110222160D01*
X172415834Y-110246813D01*
X172292900Y-110222160D01*
X171742900Y-110222160D01*
X171500777Y-110269137D01*
X171287973Y-110408927D01*
X171145523Y-110619960D01*
X171095460Y-110869600D01*
X171095460Y-112197160D01*
X169767900Y-112197160D01*
X169525777Y-112244137D01*
X169312973Y-112383927D01*
X169170523Y-112594960D01*
X169120460Y-112844600D01*
X169120460Y-113394600D01*
X169145113Y-113521665D01*
X169120460Y-113644600D01*
X169120460Y-114194600D01*
X169145113Y-114321665D01*
X169120460Y-114444600D01*
X169120460Y-114994600D01*
X169145113Y-115121665D01*
X169120460Y-115244600D01*
X169120460Y-115794600D01*
X169145113Y-115921665D01*
X169120460Y-116044600D01*
X169120460Y-116594600D01*
X169145113Y-116721665D01*
X169120460Y-116844600D01*
X169120460Y-117063926D01*
X168929226Y-117101966D01*
X168833954Y-117165624D01*
X168642110Y-117293810D01*
X168642107Y-117293813D01*
X167364210Y-118571710D01*
X167172367Y-118858825D01*
X167161189Y-118915015D01*
X167104999Y-119197500D01*
X167105000Y-119197505D01*
X167105000Y-130813996D01*
X167104999Y-130814002D01*
X167161189Y-131096486D01*
X167172367Y-131152677D01*
X167364210Y-131439792D01*
X167890205Y-131965786D01*
X167890208Y-131965790D01*
X167890209Y-131965790D01*
X168082052Y-132093975D01*
X168177323Y-132157633D01*
X168177324Y-132157634D01*
X168515998Y-132225001D01*
X168515998Y-132225000D01*
X168516003Y-132225000D01*
X170809994Y-132225000D01*
X170810000Y-132225001D01*
X170810000Y-132225000D01*
X171092484Y-132168810D01*
X171148674Y-132157633D01*
X171148675Y-132157633D01*
X171435790Y-131965790D01*
X171942139Y-131459440D01*
X172862000Y-131459440D01*
X173104123Y-131412463D01*
X173316927Y-131272673D01*
X173366785Y-131198810D01*
X173518301Y-131350327D01*
X173751690Y-131447000D01*
X174004309Y-131447000D01*
X174354250Y-131447000D01*
X174513000Y-131288250D01*
X174513000Y-130177000D01*
X174493000Y-130177000D01*
X174493000Y-129923000D01*
X174513000Y-129923000D01*
X174513000Y-129903000D01*
X174767000Y-129903000D01*
X174767000Y-129923000D01*
X175878250Y-129923000D01*
X176037000Y-129764250D01*
X176037000Y-129725000D01*
X176733494Y-129725000D01*
X177294301Y-130285806D01*
X177294304Y-130285810D01*
X177581419Y-130477653D01*
X177920094Y-130545020D01*
X184349937Y-130545020D01*
X184349943Y-130545021D01*
X184349943Y-130545020D01*
X184632427Y-130488830D01*
X184688617Y-130477653D01*
X184688618Y-130477653D01*
X184705000Y-130466706D01*
X184705000Y-130517002D01*
X184863748Y-130517002D01*
X184705000Y-130675750D01*
X184705000Y-131516309D01*
X184801673Y-131749698D01*
X184980301Y-131928327D01*
X185213690Y-132025000D01*
X185466309Y-132025000D01*
X185854250Y-132025000D01*
X186013000Y-131866250D01*
X186013000Y-130517000D01*
X185993000Y-130517000D01*
X185993000Y-130263000D01*
X186013000Y-130263000D01*
X186013000Y-130243000D01*
X186267000Y-130243000D01*
X186267000Y-130263000D01*
X187416250Y-130263000D01*
X187575000Y-130104250D01*
X187575000Y-130056542D01*
X190654254Y-133135796D01*
X190654257Y-133135800D01*
X190654258Y-133135800D01*
X190846101Y-133263985D01*
X190941372Y-133327643D01*
X190941373Y-133327644D01*
X191280047Y-133395011D01*
X191280047Y-133395010D01*
X191280052Y-133395010D01*
X208694949Y-133395010D01*
X208694955Y-133395011D01*
X208694955Y-133395010D01*
X208977439Y-133338820D01*
X209033629Y-133327643D01*
X209033630Y-133327643D01*
X209320745Y-133135800D01*
X215315000Y-127141544D01*
X215315000Y-135315000D01*
X215315000Y-135315000D01*
G37*
X215315000Y-135315000D02*
X187575000Y-135315000D01*
X187575000Y-131516309D01*
X187575000Y-130675750D01*
X187416250Y-130517000D01*
X186267000Y-130517000D01*
X186267000Y-131866250D01*
X186425750Y-132025000D01*
X186813691Y-132025000D01*
X187066310Y-132025000D01*
X187299699Y-131928327D01*
X187478327Y-131749698D01*
X187575000Y-131516309D01*
X187575000Y-135315000D01*
X186013000Y-135315000D01*
X176037000Y-135315000D01*
X176037000Y-130938309D01*
X176037000Y-130335750D01*
X175878250Y-130177000D01*
X174767000Y-130177000D01*
X174767000Y-131288250D01*
X174925750Y-131447000D01*
X175275691Y-131447000D01*
X175528310Y-131447000D01*
X175761699Y-131350327D01*
X175940327Y-131171698D01*
X176037000Y-130938309D01*
X176037000Y-135315000D01*
X166685000Y-135315000D01*
X166685000Y-91685000D01*
X215315000Y-91685000D01*
X215315000Y-122268420D01*
X214850790Y-121804210D01*
X214563675Y-121612367D01*
X214507484Y-121601189D01*
X214351114Y-121570085D01*
X214325463Y-121437877D01*
X214185673Y-121225073D01*
X214028086Y-121118700D01*
X214149698Y-121068327D01*
X214328327Y-120889699D01*
X214425000Y-120656310D01*
X214425000Y-120403691D01*
X214425000Y-120015750D01*
X214425000Y-119444250D01*
X214425000Y-119056309D01*
X214425000Y-118803690D01*
X214328327Y-118570301D01*
X214149698Y-118391673D01*
X213916309Y-118295000D01*
X213075750Y-118295000D01*
X212917000Y-118453750D01*
X212917000Y-119603000D01*
X214266250Y-119603000D01*
X214425000Y-119444250D01*
X214425000Y-120015750D01*
X214266250Y-119857000D01*
X212917000Y-119857000D01*
X212917000Y-119877000D01*
X212663000Y-119877000D01*
X212663000Y-119857000D01*
X212643000Y-119857000D01*
X212643000Y-119603000D01*
X212663000Y-119603000D01*
X212663000Y-118453750D01*
X212504250Y-118295000D01*
X211665000Y-118295000D01*
X211665000Y-114170005D01*
X211665000Y-114170000D01*
X211665001Y-114170000D01*
X211597633Y-113831325D01*
X211405790Y-113544210D01*
X211405786Y-113544207D01*
X209475790Y-111614210D01*
X209188675Y-111422367D01*
X209132484Y-111411189D01*
X208850000Y-111354999D01*
X208849994Y-111355000D01*
X207939681Y-111355000D01*
X208117633Y-111088675D01*
X208185000Y-110750000D01*
X208185001Y-110750000D01*
X208185000Y-110749994D01*
X208185000Y-108692005D01*
X208185000Y-108692000D01*
X208185001Y-108692000D01*
X208128810Y-108409515D01*
X208117633Y-108353326D01*
X208117633Y-108353325D01*
X207925790Y-108066211D01*
X207925790Y-108066210D01*
X207925786Y-108066207D01*
X207044105Y-107184526D01*
X207046927Y-107182673D01*
X207189377Y-106971640D01*
X207239440Y-106722000D01*
X207239440Y-105198000D01*
X207192463Y-104955877D01*
X207052673Y-104743073D01*
X206978810Y-104693214D01*
X207130327Y-104541699D01*
X207227000Y-104308310D01*
X207227000Y-104055691D01*
X207227000Y-103705750D01*
X207227000Y-103134250D01*
X207227000Y-102784309D01*
X207227000Y-102531690D01*
X207130327Y-102298301D01*
X206951698Y-102119673D01*
X206718309Y-102023000D01*
X206115750Y-102023000D01*
X205957000Y-102181750D01*
X205957000Y-103293000D01*
X207068250Y-103293000D01*
X207227000Y-103134250D01*
X207227000Y-103705750D01*
X207068250Y-103547000D01*
X205957000Y-103547000D01*
X205957000Y-103567000D01*
X205703000Y-103567000D01*
X205703000Y-103547000D01*
X205703000Y-103293000D01*
X205703000Y-102181750D01*
X205544250Y-102023000D01*
X204941691Y-102023000D01*
X204708302Y-102119673D01*
X204529673Y-102298301D01*
X204433000Y-102531690D01*
X204433000Y-102784309D01*
X204433000Y-103134250D01*
X204591750Y-103293000D01*
X205703000Y-103293000D01*
X205703000Y-103547000D01*
X204591750Y-103547000D01*
X204433000Y-103705750D01*
X204433000Y-104055691D01*
X204433000Y-104308310D01*
X204529673Y-104541699D01*
X204680807Y-104692832D01*
X204613073Y-104737327D01*
X204470623Y-104948360D01*
X204420560Y-105198000D01*
X204420560Y-106722000D01*
X204467537Y-106964123D01*
X204607327Y-107176927D01*
X204616978Y-107183442D01*
X203665420Y-108135000D01*
X195470948Y-108135000D01*
X195440463Y-107977877D01*
X195300673Y-107765073D01*
X195089640Y-107622623D01*
X194840000Y-107572560D01*
X193929017Y-107572560D01*
X194416577Y-107085000D01*
X198869996Y-107085000D01*
X198870002Y-107085001D01*
X198870002Y-107085000D01*
X199152486Y-107028810D01*
X199208676Y-107017633D01*
X199208677Y-107017633D01*
X199495792Y-106825790D01*
X200608839Y-105712741D01*
X200672123Y-105700463D01*
X200884927Y-105560673D01*
X201027377Y-105349640D01*
X201077440Y-105100000D01*
X201077440Y-104004139D01*
X203386579Y-101695000D01*
X207493752Y-101695000D01*
X207514537Y-101802123D01*
X207654327Y-102014927D01*
X207865360Y-102157377D01*
X208115000Y-102207440D01*
X209365000Y-102207440D01*
X209607123Y-102160463D01*
X209819927Y-102020673D01*
X209962377Y-101809640D01*
X210012440Y-101560000D01*
X210012440Y-100060000D01*
X209965463Y-99817877D01*
X209825673Y-99605073D01*
X209761362Y-99561662D01*
X209903327Y-99419698D01*
X210000000Y-99186309D01*
X210000000Y-98595750D01*
X210000000Y-98024250D01*
X210000000Y-97433691D01*
X209903327Y-97200302D01*
X209724699Y-97021673D01*
X209491310Y-96925000D01*
X209238691Y-96925000D01*
X209025750Y-96925000D01*
X208867000Y-97083750D01*
X208867000Y-98183000D01*
X209841250Y-98183000D01*
X210000000Y-98024250D01*
X210000000Y-98595750D01*
X209841250Y-98437000D01*
X208867000Y-98437000D01*
X208867000Y-98457000D01*
X208613000Y-98457000D01*
X208613000Y-98437000D01*
X208613000Y-98183000D01*
X208613000Y-97083750D01*
X208454250Y-96925000D01*
X208241309Y-96925000D01*
X207988690Y-96925000D01*
X207755301Y-97021673D01*
X207576673Y-97200302D01*
X207480000Y-97433691D01*
X207480000Y-98024250D01*
X207638750Y-98183000D01*
X208613000Y-98183000D01*
X208613000Y-98437000D01*
X207638750Y-98437000D01*
X207480000Y-98595750D01*
X207480000Y-99186309D01*
X207576673Y-99419698D01*
X207718150Y-99561176D01*
X207660073Y-99599327D01*
X207517623Y-99810360D01*
X207494633Y-99925000D01*
X207209440Y-99925000D01*
X207209440Y-98708000D01*
X207162463Y-98465877D01*
X207022673Y-98253073D01*
X206944458Y-98200277D01*
X207016927Y-98152673D01*
X207159377Y-97941640D01*
X207209440Y-97692000D01*
X207209440Y-96168000D01*
X207162463Y-95925877D01*
X207022673Y-95713073D01*
X206811640Y-95570623D01*
X206562000Y-95520560D01*
X205038000Y-95520560D01*
X204795877Y-95567537D01*
X204639896Y-95670000D01*
X200907047Y-95670000D01*
X200890673Y-95645073D01*
X200679640Y-95502623D01*
X200430000Y-95452560D01*
X199780000Y-95452560D01*
X199537877Y-95499537D01*
X199470569Y-95543751D01*
X199409640Y-95502623D01*
X199160000Y-95452560D01*
X198510000Y-95452560D01*
X198267877Y-95499537D01*
X198200569Y-95543751D01*
X198139640Y-95502623D01*
X197890000Y-95452560D01*
X197240000Y-95452560D01*
X196997877Y-95499537D01*
X196930569Y-95543751D01*
X196869640Y-95502623D01*
X196620000Y-95452560D01*
X195970000Y-95452560D01*
X195727877Y-95499537D01*
X195515073Y-95639327D01*
X195372623Y-95850360D01*
X195322560Y-96100000D01*
X195322560Y-96180996D01*
X195130912Y-96467819D01*
X195035000Y-96950000D01*
X195130912Y-97432181D01*
X195322560Y-97719003D01*
X195322560Y-97800000D01*
X195369537Y-98042123D01*
X195509327Y-98254927D01*
X195720360Y-98397377D01*
X195970000Y-98447440D01*
X196620000Y-98447440D01*
X196862123Y-98400463D01*
X196929430Y-98356248D01*
X196990360Y-98397377D01*
X197240000Y-98447440D01*
X197890000Y-98447440D01*
X198132123Y-98400463D01*
X198199430Y-98356248D01*
X198260360Y-98397377D01*
X198510000Y-98447440D01*
X199160000Y-98447440D01*
X199402123Y-98400463D01*
X199469430Y-98356248D01*
X199530360Y-98397377D01*
X199780000Y-98447440D01*
X200430000Y-98447440D01*
X200672123Y-98400463D01*
X200884927Y-98260673D01*
X200932632Y-98190000D01*
X204641137Y-98190000D01*
X204655541Y-98199722D01*
X204639896Y-98210000D01*
X201515000Y-98210000D01*
X201032819Y-98305912D01*
X200624045Y-98579045D01*
X200624042Y-98579048D01*
X197944045Y-101259045D01*
X197670912Y-101667819D01*
X197574999Y-102150000D01*
X197575000Y-102150005D01*
X197575000Y-102752560D01*
X197240000Y-102752560D01*
X196997877Y-102799537D01*
X196930569Y-102843751D01*
X196869640Y-102802623D01*
X196620000Y-102752560D01*
X195970000Y-102752560D01*
X195727877Y-102799537D01*
X195515073Y-102939327D01*
X195372623Y-103150360D01*
X195322560Y-103400000D01*
X195322560Y-103480996D01*
X195130912Y-103767819D01*
X195035000Y-104250000D01*
X195130912Y-104732181D01*
X195322560Y-105019003D01*
X195322560Y-105100000D01*
X195364274Y-105315000D01*
X194049998Y-105315000D01*
X193711323Y-105382367D01*
X193424208Y-105574210D01*
X193424205Y-105574213D01*
X191644210Y-107354208D01*
X191452367Y-107641323D01*
X191441189Y-107697513D01*
X191398214Y-107913561D01*
X191300673Y-107765073D01*
X191089640Y-107622623D01*
X190840000Y-107572560D01*
X190791032Y-107572560D01*
X190850700Y-107428510D01*
X190850700Y-107175891D01*
X190850700Y-106962950D01*
X190850700Y-106391450D01*
X190850700Y-106178509D01*
X190850700Y-105925890D01*
X190754027Y-105692501D01*
X190588725Y-105527200D01*
X190754027Y-105361899D01*
X190850700Y-105128510D01*
X190850700Y-104875891D01*
X190850700Y-104662950D01*
X190850700Y-104091450D01*
X190850700Y-103878509D01*
X190850700Y-103625890D01*
X190754027Y-103392501D01*
X190588725Y-103227200D01*
X190754027Y-103061899D01*
X190850700Y-102828510D01*
X190850700Y-102575891D01*
X190850700Y-102362950D01*
X190850700Y-101791450D01*
X190850700Y-101578509D01*
X190850700Y-101325890D01*
X190754027Y-101092501D01*
X190575398Y-100913873D01*
X190342009Y-100817200D01*
X189751450Y-100817200D01*
X189592700Y-100975950D01*
X189592700Y-101950200D01*
X190691950Y-101950200D01*
X190850700Y-101791450D01*
X190850700Y-102362950D01*
X190691950Y-102204200D01*
X189592700Y-102204200D01*
X189592700Y-103178450D01*
X189641450Y-103227200D01*
X189592700Y-103275950D01*
X189592700Y-104250200D01*
X190691950Y-104250200D01*
X190850700Y-104091450D01*
X190850700Y-104662950D01*
X190691950Y-104504200D01*
X189592700Y-104504200D01*
X189592700Y-105478450D01*
X189641450Y-105527200D01*
X189592700Y-105575950D01*
X189592700Y-106550200D01*
X190691950Y-106550200D01*
X190850700Y-106391450D01*
X190850700Y-106962950D01*
X190691950Y-106804200D01*
X189592700Y-106804200D01*
X189592700Y-106824200D01*
X189338700Y-106824200D01*
X189338700Y-106804200D01*
X189318700Y-106804200D01*
X189318700Y-106550200D01*
X189338700Y-106550200D01*
X189338700Y-105575950D01*
X189289950Y-105527200D01*
X189338700Y-105478450D01*
X189338700Y-104504200D01*
X189318700Y-104504200D01*
X189318700Y-104250200D01*
X189338700Y-104250200D01*
X189338700Y-103275950D01*
X189289950Y-103227200D01*
X189338700Y-103178450D01*
X189338700Y-102204200D01*
X189318700Y-102204200D01*
X189318700Y-101950200D01*
X189338700Y-101950200D01*
X189338700Y-100975950D01*
X189179950Y-100817200D01*
X188589391Y-100817200D01*
X188356002Y-100913873D01*
X188214523Y-101055350D01*
X188176373Y-100997273D01*
X187965340Y-100854823D01*
X187715700Y-100804760D01*
X186215700Y-100804760D01*
X185973577Y-100851737D01*
X185760773Y-100991527D01*
X185618323Y-101202560D01*
X185568260Y-101452200D01*
X185568260Y-102702200D01*
X185615237Y-102944323D01*
X185755027Y-103157127D01*
X185858768Y-103227154D01*
X185760773Y-103291527D01*
X185618323Y-103502560D01*
X185568260Y-103752200D01*
X185568260Y-105002200D01*
X185615237Y-105244323D01*
X185755027Y-105457127D01*
X185858768Y-105527154D01*
X185760773Y-105591527D01*
X185625316Y-105792200D01*
X177862800Y-105792200D01*
X177524125Y-105859567D01*
X177237010Y-106051410D01*
X177237007Y-106051413D01*
X174851320Y-108437100D01*
X174237900Y-108437100D01*
X173899225Y-108504467D01*
X173612110Y-108696310D01*
X173612107Y-108696313D01*
X172992110Y-109316310D01*
X172800267Y-109603425D01*
X172789089Y-109659615D01*
X172732899Y-109942100D01*
X172732900Y-109942105D01*
X172732900Y-110222160D01*
X172542900Y-110222160D01*
X172415834Y-110246813D01*
X172292900Y-110222160D01*
X171742900Y-110222160D01*
X171500777Y-110269137D01*
X171287973Y-110408927D01*
X171145523Y-110619960D01*
X171095460Y-110869600D01*
X171095460Y-112197160D01*
X169767900Y-112197160D01*
X169525777Y-112244137D01*
X169312973Y-112383927D01*
X169170523Y-112594960D01*
X169120460Y-112844600D01*
X169120460Y-113394600D01*
X169145113Y-113521665D01*
X169120460Y-113644600D01*
X169120460Y-114194600D01*
X169145113Y-114321665D01*
X169120460Y-114444600D01*
X169120460Y-114994600D01*
X169145113Y-115121665D01*
X169120460Y-115244600D01*
X169120460Y-115794600D01*
X169145113Y-115921665D01*
X169120460Y-116044600D01*
X169120460Y-116594600D01*
X169145113Y-116721665D01*
X169120460Y-116844600D01*
X169120460Y-117063926D01*
X168929226Y-117101966D01*
X168833954Y-117165624D01*
X168642110Y-117293810D01*
X168642107Y-117293813D01*
X167364210Y-118571710D01*
X167172367Y-118858825D01*
X167161189Y-118915015D01*
X167104999Y-119197500D01*
X167105000Y-119197505D01*
X167105000Y-130813996D01*
X167104999Y-130814002D01*
X167161189Y-131096486D01*
X167172367Y-131152677D01*
X167364210Y-131439792D01*
X167890205Y-131965786D01*
X167890208Y-131965790D01*
X167890209Y-131965790D01*
X168082052Y-132093975D01*
X168177323Y-132157633D01*
X168177324Y-132157634D01*
X168515998Y-132225001D01*
X168515998Y-132225000D01*
X168516003Y-132225000D01*
X170809994Y-132225000D01*
X170810000Y-132225001D01*
X170810000Y-132225000D01*
X171092484Y-132168810D01*
X171148674Y-132157633D01*
X171148675Y-132157633D01*
X171435790Y-131965790D01*
X171942139Y-131459440D01*
X172862000Y-131459440D01*
X173104123Y-131412463D01*
X173316927Y-131272673D01*
X173366785Y-131198810D01*
X173518301Y-131350327D01*
X173751690Y-131447000D01*
X174004309Y-131447000D01*
X174354250Y-131447000D01*
X174513000Y-131288250D01*
X174513000Y-130177000D01*
X174493000Y-130177000D01*
X174493000Y-129923000D01*
X174513000Y-129923000D01*
X174513000Y-129903000D01*
X174767000Y-129903000D01*
X174767000Y-129923000D01*
X175878250Y-129923000D01*
X176037000Y-129764250D01*
X176037000Y-129725000D01*
X176733494Y-129725000D01*
X177294301Y-130285806D01*
X177294304Y-130285810D01*
X177581419Y-130477653D01*
X177920094Y-130545020D01*
X184349937Y-130545020D01*
X184349943Y-130545021D01*
X184349943Y-130545020D01*
X184632427Y-130488830D01*
X184688617Y-130477653D01*
X184688618Y-130477653D01*
X184705000Y-130466706D01*
X184705000Y-130517002D01*
X184863748Y-130517002D01*
X184705000Y-130675750D01*
X184705000Y-131516309D01*
X184801673Y-131749698D01*
X184980301Y-131928327D01*
X185213690Y-132025000D01*
X185466309Y-132025000D01*
X185854250Y-132025000D01*
X186013000Y-131866250D01*
X186013000Y-130517000D01*
X185993000Y-130517000D01*
X185993000Y-130263000D01*
X186013000Y-130263000D01*
X186013000Y-130243000D01*
X186267000Y-130243000D01*
X186267000Y-130263000D01*
X187416250Y-130263000D01*
X187575000Y-130104250D01*
X187575000Y-130056542D01*
X190654254Y-133135796D01*
X190654257Y-133135800D01*
X190654258Y-133135800D01*
X190846101Y-133263985D01*
X190941372Y-133327643D01*
X190941373Y-133327644D01*
X191280047Y-133395011D01*
X191280047Y-133395010D01*
X191280052Y-133395010D01*
X208694949Y-133395010D01*
X208694955Y-133395011D01*
X208694955Y-133395010D01*
X208977439Y-133338820D01*
X209033629Y-133327643D01*
X209033630Y-133327643D01*
X209320745Y-133135800D01*
X215315000Y-127141544D01*
X215315000Y-135315000D01*
M02*
