G04 #@! TF.FileFunction,Legend,Top*
%FSLAX46Y46*%
G04 Gerber Fmt 4.6, Leading zero omitted, Abs format (unit mm)*
G04 Created by KiCad (PCBNEW (2015-04-05 BZR 5577)-product) date St 5. srpen 2015, 18:04:27 CEST*
%MOMM*%
G01*
G04 APERTURE LIST*
%ADD10C,0.100000*%
%ADD11C,0.150000*%
G04 APERTURE END LIST*
D10*
D11*
X195445000Y-103350000D02*
X195745000Y-103350000D01*
X195445000Y-97850000D02*
X195745000Y-97850000D01*
X200955000Y-97850000D02*
X200655000Y-97850000D01*
X200955000Y-103350000D02*
X200655000Y-103350000D01*
X195445000Y-103350000D02*
X195445000Y-97850000D01*
X200955000Y-103350000D02*
X200955000Y-97850000D01*
X195745000Y-103350000D02*
X195745000Y-105100000D01*
X182480000Y-123800000D02*
X181480000Y-123800000D01*
X181480000Y-125500000D02*
X182480000Y-125500000D01*
X188715700Y-105827200D02*
X187715700Y-105827200D01*
X187715700Y-107527200D02*
X188715700Y-107527200D01*
X188715700Y-103527200D02*
X187715700Y-103527200D01*
X187715700Y-105227200D02*
X188715700Y-105227200D01*
X182480000Y-121500000D02*
X181480000Y-121500000D01*
X181480000Y-123200000D02*
X182480000Y-123200000D01*
X190830000Y-124525000D02*
X191830000Y-124525000D01*
X191830000Y-122825000D02*
X190830000Y-122825000D01*
X190840000Y-129120000D02*
X191840000Y-129120000D01*
X191840000Y-127420000D02*
X190840000Y-127420000D01*
X190840000Y-126830000D02*
X191840000Y-126830000D01*
X191840000Y-125130000D02*
X190840000Y-125130000D01*
X188715700Y-101227200D02*
X187715700Y-101227200D01*
X187715700Y-102927200D02*
X188715700Y-102927200D01*
X178442900Y-112294600D02*
X178117900Y-112294600D01*
X178442900Y-119544600D02*
X178117900Y-119544600D01*
X171192900Y-119544600D02*
X171517900Y-119544600D01*
X171192900Y-112294600D02*
X171517900Y-112294600D01*
X178442900Y-112294600D02*
X178442900Y-112619600D01*
X171192900Y-112294600D02*
X171192900Y-112619600D01*
X171192900Y-119544600D02*
X171192900Y-119219600D01*
X178442900Y-119544600D02*
X178442900Y-119219600D01*
X178117900Y-112294600D02*
X178117900Y-110869600D01*
X182480000Y-126100000D02*
X181480000Y-126100000D01*
X181480000Y-127800000D02*
X182480000Y-127800000D01*
X211630000Y-124180000D02*
X211630000Y-123180000D01*
X209930000Y-123180000D02*
X209930000Y-124180000D01*
X213950000Y-124180000D02*
X213950000Y-123180000D01*
X212250000Y-123180000D02*
X212250000Y-124180000D01*
X209340000Y-124190000D02*
X209340000Y-123190000D01*
X207640000Y-123190000D02*
X207640000Y-124190000D01*
X207630000Y-115570000D02*
X207630000Y-116570000D01*
X209330000Y-116570000D02*
X209330000Y-115570000D01*
X197400000Y-124080000D02*
X197400000Y-129080000D01*
X197400000Y-129080000D02*
X194400000Y-129080000D01*
X194400000Y-129080000D02*
X194400000Y-124080000D01*
X194400000Y-124080000D02*
X197400000Y-124080000D01*
X207890000Y-99060000D02*
X207890000Y-100060000D01*
X209590000Y-100060000D02*
X209590000Y-99060000D01*
X211790000Y-118705000D02*
X209790000Y-118705000D01*
X209790000Y-120755000D02*
X211790000Y-120755000D01*
X192840000Y-107995000D02*
X190840000Y-107995000D01*
X190840000Y-110045000D02*
X192840000Y-110045000D01*
X187165000Y-129390000D02*
X187165000Y-127390000D01*
X185115000Y-127390000D02*
X185115000Y-129390000D01*
X195067619Y-100695238D02*
X195020000Y-100790476D01*
X194924762Y-100885714D01*
X194781905Y-101028571D01*
X194734286Y-101123810D01*
X194734286Y-101219048D01*
X194972381Y-101171429D02*
X194924762Y-101266667D01*
X194829524Y-101361905D01*
X194639048Y-101409524D01*
X194305714Y-101409524D01*
X194115238Y-101361905D01*
X194020000Y-101266667D01*
X193972381Y-101171429D01*
X193972381Y-100980952D01*
X194020000Y-100885714D01*
X194115238Y-100790476D01*
X194305714Y-100742857D01*
X194639048Y-100742857D01*
X194829524Y-100790476D01*
X194924762Y-100885714D01*
X194972381Y-100980952D01*
X194972381Y-101171429D01*
X194972381Y-99790476D02*
X194972381Y-100361905D01*
X194972381Y-100076191D02*
X193972381Y-100076191D01*
X194115238Y-100171429D01*
X194210476Y-100266667D01*
X194258095Y-100361905D01*
X178313334Y-125017143D02*
X178265715Y-125064762D01*
X178122858Y-125112381D01*
X178027620Y-125112381D01*
X177884762Y-125064762D01*
X177789524Y-124969524D01*
X177741905Y-124874286D01*
X177694286Y-124683810D01*
X177694286Y-124540952D01*
X177741905Y-124350476D01*
X177789524Y-124255238D01*
X177884762Y-124160000D01*
X178027620Y-124112381D01*
X178122858Y-124112381D01*
X178265715Y-124160000D01*
X178313334Y-124207619D01*
X179265715Y-125112381D02*
X178694286Y-125112381D01*
X178980000Y-125112381D02*
X178980000Y-124112381D01*
X178884762Y-124255238D01*
X178789524Y-124350476D01*
X178694286Y-124398095D01*
X184549034Y-107034343D02*
X184501415Y-107081962D01*
X184358558Y-107129581D01*
X184263320Y-107129581D01*
X184120462Y-107081962D01*
X184025224Y-106986724D01*
X183977605Y-106891486D01*
X183929986Y-106701010D01*
X183929986Y-106558152D01*
X183977605Y-106367676D01*
X184025224Y-106272438D01*
X184120462Y-106177200D01*
X184263320Y-106129581D01*
X184358558Y-106129581D01*
X184501415Y-106177200D01*
X184549034Y-106224819D01*
X184929986Y-106224819D02*
X184977605Y-106177200D01*
X185072843Y-106129581D01*
X185310939Y-106129581D01*
X185406177Y-106177200D01*
X185453796Y-106224819D01*
X185501415Y-106320057D01*
X185501415Y-106415295D01*
X185453796Y-106558152D01*
X184882367Y-107129581D01*
X185501415Y-107129581D01*
X184549034Y-104734343D02*
X184501415Y-104781962D01*
X184358558Y-104829581D01*
X184263320Y-104829581D01*
X184120462Y-104781962D01*
X184025224Y-104686724D01*
X183977605Y-104591486D01*
X183929986Y-104401010D01*
X183929986Y-104258152D01*
X183977605Y-104067676D01*
X184025224Y-103972438D01*
X184120462Y-103877200D01*
X184263320Y-103829581D01*
X184358558Y-103829581D01*
X184501415Y-103877200D01*
X184549034Y-103924819D01*
X184882367Y-103829581D02*
X185501415Y-103829581D01*
X185168081Y-104210533D01*
X185310939Y-104210533D01*
X185406177Y-104258152D01*
X185453796Y-104305771D01*
X185501415Y-104401010D01*
X185501415Y-104639105D01*
X185453796Y-104734343D01*
X185406177Y-104781962D01*
X185310939Y-104829581D01*
X185025224Y-104829581D01*
X184929986Y-104781962D01*
X184882367Y-104734343D01*
X178313334Y-122717143D02*
X178265715Y-122764762D01*
X178122858Y-122812381D01*
X178027620Y-122812381D01*
X177884762Y-122764762D01*
X177789524Y-122669524D01*
X177741905Y-122574286D01*
X177694286Y-122383810D01*
X177694286Y-122240952D01*
X177741905Y-122050476D01*
X177789524Y-121955238D01*
X177884762Y-121860000D01*
X178027620Y-121812381D01*
X178122858Y-121812381D01*
X178265715Y-121860000D01*
X178313334Y-121907619D01*
X179170477Y-122145714D02*
X179170477Y-122812381D01*
X178932381Y-121764762D02*
X178694286Y-122479048D01*
X179313334Y-122479048D01*
X191153334Y-122227143D02*
X191105715Y-122274762D01*
X190962858Y-122322381D01*
X190867620Y-122322381D01*
X190724762Y-122274762D01*
X190629524Y-122179524D01*
X190581905Y-122084286D01*
X190534286Y-121893810D01*
X190534286Y-121750952D01*
X190581905Y-121560476D01*
X190629524Y-121465238D01*
X190724762Y-121370000D01*
X190867620Y-121322381D01*
X190962858Y-121322381D01*
X191105715Y-121370000D01*
X191153334Y-121417619D01*
X192058096Y-121322381D02*
X191581905Y-121322381D01*
X191534286Y-121798571D01*
X191581905Y-121750952D01*
X191677143Y-121703333D01*
X191915239Y-121703333D01*
X192010477Y-121750952D01*
X192058096Y-121798571D01*
X192105715Y-121893810D01*
X192105715Y-122131905D01*
X192058096Y-122227143D01*
X192010477Y-122274762D01*
X191915239Y-122322381D01*
X191677143Y-122322381D01*
X191581905Y-122274762D01*
X191534286Y-122227143D01*
X191153334Y-130437143D02*
X191105715Y-130484762D01*
X190962858Y-130532381D01*
X190867620Y-130532381D01*
X190724762Y-130484762D01*
X190629524Y-130389524D01*
X190581905Y-130294286D01*
X190534286Y-130103810D01*
X190534286Y-129960952D01*
X190581905Y-129770476D01*
X190629524Y-129675238D01*
X190724762Y-129580000D01*
X190867620Y-129532381D01*
X190962858Y-129532381D01*
X191105715Y-129580000D01*
X191153334Y-129627619D01*
X192010477Y-129532381D02*
X191820000Y-129532381D01*
X191724762Y-129580000D01*
X191677143Y-129627619D01*
X191581905Y-129770476D01*
X191534286Y-129960952D01*
X191534286Y-130341905D01*
X191581905Y-130437143D01*
X191629524Y-130484762D01*
X191724762Y-130532381D01*
X191915239Y-130532381D01*
X192010477Y-130484762D01*
X192058096Y-130437143D01*
X192105715Y-130341905D01*
X192105715Y-130103810D01*
X192058096Y-130008571D01*
X192010477Y-129960952D01*
X191915239Y-129913333D01*
X191724762Y-129913333D01*
X191629524Y-129960952D01*
X191581905Y-130008571D01*
X191534286Y-130103810D01*
X188233334Y-126327143D02*
X188185715Y-126374762D01*
X188042858Y-126422381D01*
X187947620Y-126422381D01*
X187804762Y-126374762D01*
X187709524Y-126279524D01*
X187661905Y-126184286D01*
X187614286Y-125993810D01*
X187614286Y-125850952D01*
X187661905Y-125660476D01*
X187709524Y-125565238D01*
X187804762Y-125470000D01*
X187947620Y-125422381D01*
X188042858Y-125422381D01*
X188185715Y-125470000D01*
X188233334Y-125517619D01*
X188566667Y-125422381D02*
X189233334Y-125422381D01*
X188804762Y-126422381D01*
X183977605Y-102529581D02*
X183977605Y-101529581D01*
X184215700Y-101529581D01*
X184358558Y-101577200D01*
X184453796Y-101672438D01*
X184501415Y-101767676D01*
X184549034Y-101958152D01*
X184549034Y-102101010D01*
X184501415Y-102291486D01*
X184453796Y-102386724D01*
X184358558Y-102481962D01*
X184215700Y-102529581D01*
X183977605Y-102529581D01*
X185501415Y-102529581D02*
X184929986Y-102529581D01*
X185215700Y-102529581D02*
X185215700Y-101529581D01*
X185120462Y-101672438D01*
X185025224Y-101767676D01*
X184929986Y-101815295D01*
X181320281Y-116895790D02*
X180320281Y-116895790D01*
X181225043Y-115848171D02*
X181272662Y-115895790D01*
X181320281Y-116038647D01*
X181320281Y-116133885D01*
X181272662Y-116276743D01*
X181177424Y-116371981D01*
X181082186Y-116419600D01*
X180891710Y-116467219D01*
X180748852Y-116467219D01*
X180558376Y-116419600D01*
X180463138Y-116371981D01*
X180367900Y-116276743D01*
X180320281Y-116133885D01*
X180320281Y-116038647D01*
X180367900Y-115895790D01*
X180415519Y-115848171D01*
X181320281Y-114895790D02*
X181320281Y-115467219D01*
X181320281Y-115181505D02*
X180320281Y-115181505D01*
X180463138Y-115276743D01*
X180558376Y-115371981D01*
X180605995Y-115467219D01*
X178303334Y-127412381D02*
X177827143Y-127412381D01*
X177827143Y-126412381D01*
X179160477Y-127412381D02*
X178589048Y-127412381D01*
X178874762Y-127412381D02*
X178874762Y-126412381D01*
X178779524Y-126555238D01*
X178684286Y-126650476D01*
X178589048Y-126698095D01*
X211232381Y-127066666D02*
X210756190Y-127400000D01*
X211232381Y-127638095D02*
X210232381Y-127638095D01*
X210232381Y-127257142D01*
X210280000Y-127161904D01*
X210327619Y-127114285D01*
X210422857Y-127066666D01*
X210565714Y-127066666D01*
X210660952Y-127114285D01*
X210708571Y-127161904D01*
X210756190Y-127257142D01*
X210756190Y-127638095D01*
X211232381Y-126114285D02*
X211232381Y-126685714D01*
X211232381Y-126400000D02*
X210232381Y-126400000D01*
X210375238Y-126495238D01*
X210470476Y-126590476D01*
X210518095Y-126685714D01*
X213552381Y-127336666D02*
X213076190Y-127670000D01*
X213552381Y-127908095D02*
X212552381Y-127908095D01*
X212552381Y-127527142D01*
X212600000Y-127431904D01*
X212647619Y-127384285D01*
X212742857Y-127336666D01*
X212885714Y-127336666D01*
X212980952Y-127384285D01*
X213028571Y-127431904D01*
X213076190Y-127527142D01*
X213076190Y-127908095D01*
X212647619Y-126955714D02*
X212600000Y-126908095D01*
X212552381Y-126812857D01*
X212552381Y-126574761D01*
X212600000Y-126479523D01*
X212647619Y-126431904D01*
X212742857Y-126384285D01*
X212838095Y-126384285D01*
X212980952Y-126431904D01*
X213552381Y-127003333D01*
X213552381Y-126384285D01*
X208942381Y-127076666D02*
X208466190Y-127410000D01*
X208942381Y-127648095D02*
X207942381Y-127648095D01*
X207942381Y-127267142D01*
X207990000Y-127171904D01*
X208037619Y-127124285D01*
X208132857Y-127076666D01*
X208275714Y-127076666D01*
X208370952Y-127124285D01*
X208418571Y-127171904D01*
X208466190Y-127267142D01*
X208466190Y-127648095D01*
X207942381Y-126743333D02*
X207942381Y-126124285D01*
X208323333Y-126457619D01*
X208323333Y-126314761D01*
X208370952Y-126219523D01*
X208418571Y-126171904D01*
X208513810Y-126124285D01*
X208751905Y-126124285D01*
X208847143Y-126171904D01*
X208894762Y-126219523D01*
X208942381Y-126314761D01*
X208942381Y-126600476D01*
X208894762Y-126695714D01*
X208847143Y-126743333D01*
X208932381Y-112736666D02*
X208456190Y-113070000D01*
X208932381Y-113308095D02*
X207932381Y-113308095D01*
X207932381Y-112927142D01*
X207980000Y-112831904D01*
X208027619Y-112784285D01*
X208122857Y-112736666D01*
X208265714Y-112736666D01*
X208360952Y-112784285D01*
X208408571Y-112831904D01*
X208456190Y-112927142D01*
X208456190Y-113308095D01*
X207932381Y-111831904D02*
X207932381Y-112308095D01*
X208408571Y-112355714D01*
X208360952Y-112308095D01*
X208313333Y-112212857D01*
X208313333Y-111974761D01*
X208360952Y-111879523D01*
X208408571Y-111831904D01*
X208503810Y-111784285D01*
X208741905Y-111784285D01*
X208837143Y-111831904D01*
X208884762Y-111879523D01*
X208932381Y-111974761D01*
X208932381Y-112212857D01*
X208884762Y-112308095D01*
X208837143Y-112355714D01*
X194757143Y-129558571D02*
X194757143Y-130772857D01*
X194828571Y-130915714D01*
X194900000Y-130987143D01*
X195042857Y-131058571D01*
X195328571Y-131058571D01*
X195471429Y-130987143D01*
X195542857Y-130915714D01*
X195614286Y-130772857D01*
X195614286Y-129558571D01*
X197114286Y-131058571D02*
X196257143Y-131058571D01*
X196685715Y-131058571D02*
X196685715Y-129558571D01*
X196542858Y-129772857D01*
X196400000Y-129915714D01*
X196257143Y-129987143D01*
X211332381Y-99726666D02*
X210856190Y-100060000D01*
X211332381Y-100298095D02*
X210332381Y-100298095D01*
X210332381Y-99917142D01*
X210380000Y-99821904D01*
X210427619Y-99774285D01*
X210522857Y-99726666D01*
X210665714Y-99726666D01*
X210760952Y-99774285D01*
X210808571Y-99821904D01*
X210856190Y-99917142D01*
X210856190Y-100298095D01*
X210665714Y-98869523D02*
X211332381Y-98869523D01*
X210284762Y-99107619D02*
X210999048Y-99345714D01*
X210999048Y-98726666D01*
X210623334Y-117882381D02*
X210290000Y-117406190D01*
X210051905Y-117882381D02*
X210051905Y-116882381D01*
X210432858Y-116882381D01*
X210528096Y-116930000D01*
X210575715Y-116977619D01*
X210623334Y-117072857D01*
X210623334Y-117215714D01*
X210575715Y-117310952D01*
X210528096Y-117358571D01*
X210432858Y-117406190D01*
X210051905Y-117406190D01*
X211480477Y-116882381D02*
X211290000Y-116882381D01*
X211194762Y-116930000D01*
X211147143Y-116977619D01*
X211051905Y-117120476D01*
X211004286Y-117310952D01*
X211004286Y-117691905D01*
X211051905Y-117787143D01*
X211099524Y-117834762D01*
X211194762Y-117882381D01*
X211385239Y-117882381D01*
X211480477Y-117834762D01*
X211528096Y-117787143D01*
X211575715Y-117691905D01*
X211575715Y-117453810D01*
X211528096Y-117358571D01*
X211480477Y-117310952D01*
X211385239Y-117263333D01*
X211194762Y-117263333D01*
X211099524Y-117310952D01*
X211051905Y-117358571D01*
X211004286Y-117453810D01*
X191673334Y-111342381D02*
X191340000Y-110866190D01*
X191101905Y-111342381D02*
X191101905Y-110342381D01*
X191482858Y-110342381D01*
X191578096Y-110390000D01*
X191625715Y-110437619D01*
X191673334Y-110532857D01*
X191673334Y-110675714D01*
X191625715Y-110770952D01*
X191578096Y-110818571D01*
X191482858Y-110866190D01*
X191101905Y-110866190D01*
X192006667Y-110342381D02*
X192673334Y-110342381D01*
X192244762Y-111342381D01*
X186572381Y-132846666D02*
X186096190Y-133180000D01*
X186572381Y-133418095D02*
X185572381Y-133418095D01*
X185572381Y-133037142D01*
X185620000Y-132941904D01*
X185667619Y-132894285D01*
X185762857Y-132846666D01*
X185905714Y-132846666D01*
X186000952Y-132894285D01*
X186048571Y-132941904D01*
X186096190Y-133037142D01*
X186096190Y-133418095D01*
X186000952Y-132275238D02*
X185953333Y-132370476D01*
X185905714Y-132418095D01*
X185810476Y-132465714D01*
X185762857Y-132465714D01*
X185667619Y-132418095D01*
X185620000Y-132370476D01*
X185572381Y-132275238D01*
X185572381Y-132084761D01*
X185620000Y-131989523D01*
X185667619Y-131941904D01*
X185762857Y-131894285D01*
X185810476Y-131894285D01*
X185905714Y-131941904D01*
X185953333Y-131989523D01*
X186000952Y-132084761D01*
X186000952Y-132275238D01*
X186048571Y-132370476D01*
X186096190Y-132418095D01*
X186191429Y-132465714D01*
X186381905Y-132465714D01*
X186477143Y-132418095D01*
X186524762Y-132370476D01*
X186572381Y-132275238D01*
X186572381Y-132084761D01*
X186524762Y-131989523D01*
X186477143Y-131941904D01*
X186381905Y-131894285D01*
X186191429Y-131894285D01*
X186096190Y-131941904D01*
X186048571Y-131989523D01*
X186000952Y-132084761D01*
M02*
